<?xml version="1.0" standalone="no"?>
<!DOCTYPE svg PUBLIC "-//W3C//DTD SVG 20010904//EN"
 "http://www.w3.org/TR/2001/REC-SVG-20010904/DTD/svg10.dtd">
<svg version="1.0" xmlns="http://www.w3.org/2000/svg"
 width="500.000000pt" height="500.000000pt" viewBox="0 0 500.000000 500.000000"
 preserveAspectRatio="xMidYMid meet">
<metadata>
Created by potrace 1.11, written by Peter Selinger 2001-2013
</metadata>
<g transform="translate(0.000000,500.000000) scale(0.100000,-0.100000)"
fill="#000000" stroke="none">
<path d="M1030 4993 c-331 -20 -553 -108 -734 -292 -158 -159 -240 -335 -278
-596 -19 -131 -19 -3079 0 -3210 38 -261 120 -437 278 -596 156 -158 336 -243
599 -281 131 -19 3079 -19 3210 0 261 38 437 120 596 278 158 156 243 336 281
599 19 131 19 3079 0 3210 -38 263 -123 443 -281 599 -153 152 -309 228 -561
274 -74 13 -283 15 -1570 17 -817 1 -1510 0 -1540 -2z m770 -2248 c63 -179
117 -325 120 -325 3 0 54 146 115 325 l110 325 177 0 178 0 0 -510 0 -510
-121 0 -121 0 4 360 c1 197 0 356 -3 352 -3 -4 -64 -166 -134 -359 l-129 -353
-87 0 -86 0 -128 360 c-70 198 -130 360 -133 360 -3 0 -2 -162 1 -360 l6 -360
-115 0 -114 0 0 510 0 510 173 0 172 0 115 -325z m1694 -167 c107 -271 198
-501 202 -510 6 -17 -4 -18 -129 -18 l-135 0 -102 268 c-56 147 -114 298 -128
335 -15 41 -28 64 -32 57 -4 -7 -63 -158 -131 -336 l-124 -324 -133 0 c-74 0
-132 4 -130 9 2 4 91 234 198 510 l195 501 127 0 126 0 196 -492z"/>
</g>
</svg>
