<?xml version="1.0" encoding="UTF-8"?>
<svg width="25px" height="25px" viewBox="0 0 25 25" version="1.1" xmlns="http://www.w3.org/2000/svg" xmlns:xlink="http://www.w3.org/1999/xlink">
    <!-- Generator: Sketch 50.2 (55047) - http://www.bohemiancoding.com/sketch -->
    <title>flaticon1541390061-svg</title>
    <desc>Created with Sketch.</desc>
    <defs></defs>
    <g id="Page-1" stroke="none" stroke-width="1" fill="none" fill-rule="evenodd">
        <g id="Group-3" transform="translate(-868.000000, -879.000000)" fill="#FCCA3A" fill-rule="nonzero">
            <g id="Group-6" transform="translate(198.000000, 723.000000)">
                <g id="Group-7" transform="translate(670.000000, 110.000000)">
                    <g id="Group-10" transform="translate(0.000000, 46.000000)">
                        <g id="flaticon1541390061-svg">
                            <path d="M24.5833496,11.25 L24.0945801,11.25 C23.5137695,5.83833008 19.1620605,1.48666992 13.75,0.90625 L13.75,0.416650391 C13.75,0.186230469 13.5633301,0 13.3333496,0 L11.6666992,0 C11.4367188,0 11.2500488,0.186230469 11.2500488,0.416650391 L11.2500488,0.90625 C5.83833008,1.48666992 1.48666992,5.83833008 0.905810547,11.25 L0.416650391,11.25 C0.186669922,11.25 0,11.4362305 0,11.6666504 L0,13.3333008 C0,13.5637207 0.186669922,13.7499512 0.416650391,13.7499512 L0.905810547,13.7499512 C1.48666992,19.1616699 5.83833008,23.5133301 11.25,24.09375 L11.25,24.5833496 C11.25,24.8137695 11.4366699,25 11.6666504,25 L13.3333008,25 C13.5632812,25 13.7499512,24.8137695 13.7499512,24.5833496 L13.7499512,24.09375 C19.1616211,23.5133301 23.5137207,19.1616699 24.0945313,13.75 L24.5833008,13.75 C24.8132812,13.75 24.9999512,13.5637695 24.9999512,13.3333496 L24.9999512,11.6666992 C25,11.4362305 24.8133301,11.25 24.5833496,11.25 Z M22.9166504,13.75 L23.2583008,13.75 C22.6850098,18.7049805 18.7045898,22.6850098 13.75,23.2579102 L13.75,22.9166504 C13.75,22.6862305 13.5633301,22.5 13.3333496,22.5 L11.6666992,22.5 C11.4367187,22.5 11.2500488,22.6862305 11.2500488,22.9166504 L11.2500488,23.2579102 C6.29501953,22.6850098 2.31499023,18.7045898 1.74165039,13.75 L2.08330078,13.75 C2.31328125,13.75 2.49995117,13.5637695 2.49995117,13.3333496 L2.49995117,11.6666992 C2.49995117,11.4362793 2.31328125,11.2500488 2.08330078,11.2500488 L1.74165039,11.2500488 C2.31459961,6.29501953 6.29501953,2.31499023 11.25,1.74208984 L11.25,2.08334961 C11.25,2.31376953 11.4366699,2.5 11.6666504,2.5 L13.3333008,2.5 C13.5632812,2.5 13.7499512,2.31376953 13.7499512,2.08334961 L13.7499512,1.74208984 C18.7049805,2.31499023 22.6850098,6.29541016 23.2583496,11.25 L22.9166992,11.25 C22.6867188,11.25 22.5000488,11.4362305 22.5000488,11.6666504 L22.5000488,13.3333008 C22.5,13.5637695 22.6866699,13.75 22.9166504,13.75 Z" id="Shape"></path>
                        </g>
                    </g>
                </g>
            </g>
        </g>
    </g>
</svg>