<?xml version="1.0" encoding="UTF-8"?>
<svg width="254px" height="68px" viewBox="0 0 254 68" version="1.1" xmlns="http://www.w3.org/2000/svg" xmlns:xlink="http://www.w3.org/1999/xlink">
    <!-- Generator: Sketch 50.2 (55047) - http://www.bohemiancoding.com/sketch -->
    <title>brush-stroke-banner-6</title>
    <desc>Created with Sketch.</desc>
    <defs></defs>
    <g id="brush" stroke="none" stroke-width="1" fill="none" fill-rule="evenodd">
        <g id="brush-body" transform="translate(-216.000000, -672.000000)"  fill-rule="nonzero">
            <g id="MAIN" transform="translate(0.000000, 175.000000)">
                <g id="Group-24" transform="translate(216.000000, 106.000000)">
                    <g id="btn" transform="translate(0.000000, 391.000000)">
                        <g fill="#FCCA3A" id="brush-stroke-banner-6">
                            <path d="M66.2615302,67.6410407 C66.2615302,67.4434858 66.2003365,67.3197089 66.1255437,67.3659781 C66.0507534,67.4122447 65.8962147,67.226484 65.7821281,66.9531757 C65.6617753,66.6648596 65.4761825,66.4562529 65.3400258,66.4562529 C65.1545627,66.4562529 65.1395868,66.4149693 65.2686087,66.259359 C65.3940212,66.1081064 65.3898759,66.0483269 65.2507271,66.0014627 C65.1082407,65.9534749 65.1144713,65.8857936 65.279932,65.6842649 C65.4402212,65.4890363 65.4485626,65.4140176 65.3149891,65.3690197 C65.2185808,65.3365405 65.1397037,65.2483394 65.1397037,65.1730182 C65.1397037,65.0976969 65.2020835,65.0746602 65.2783267,65.1218269 C65.357816,65.170997 65.3813237,65.1146573 65.3334371,64.9897465 C65.2875063,64.8699383 65.3219817,64.771916 65.4100892,64.771916 C65.5268022,64.771916 65.5295352,64.6957532 65.4201476,64.491194 C65.2995916,64.2657133 65.3135057,64.2104695 65.4908587,64.2104695 C65.6693038,64.2104695 65.6779728,64.1743673 65.5360554,64.0223037 C65.354514,63.8277768 65.0019036,64.0017102 65.0479436,64.2631048 C65.0598308,64.3306539 64.9956628,64.4132159 64.9053252,64.4465723 C64.7972863,64.4864651 64.768851,64.4008929 64.8222418,64.1965346 C64.8668874,64.0256571 64.8461432,63.9194025 64.7761509,63.960414 C64.7061587,64.0014255 64.5226843,63.9885177 64.3684327,63.9317306 C64.1460354,63.8498525 64.211354,63.8073486 64.6839489,63.7264137 C65.055589,63.6627672 65.2799193,63.5497421 65.2799193,63.4261432 C65.2799193,63.3171326 65.4025479,63.22794 65.5524283,63.22794 C65.7023035,63.22794 65.9112515,63.1045826 66.016753,62.9538156 C66.2059093,62.6835022 66.9201776,62.3146326 67.1517062,62.3676925 C67.2171138,62.3826927 67.6272831,62.3048647 68.0631928,62.1947659 C68.4991025,62.0846646 69.2502618,61.9500596 69.7324351,61.895642 C70.2146109,61.8412244 70.6442798,61.7397546 70.6872566,61.6701512 C70.7302309,61.6005478 70.9036519,61.542187 71.0726356,61.5404556 C71.2416141,61.5386759 71.7584914,61.3506525 72.2212464,61.1225176 C72.6840014,60.8943802 73.1693243,60.7063084 73.2997431,60.7045771 C73.4301619,60.7027974 73.575869,60.6382712 73.6235347,60.5610711 C73.6712003,60.483871 73.6389779,60.4207101 73.5519422,60.4207101 C73.3575992,60.4207101 73.4276676,59.7929578 73.6235347,59.7793203 C73.7006592,59.7739558 74.0404249,59.6902803 74.3785674,59.5933817 C74.7167075,59.4964856 75.1473594,59.4558911 75.3355683,59.5031747 C75.5237747,59.5504583 75.8781428,59.5272767 76.1230521,59.4516656 C76.3679589,59.3760545 76.9204571,59.2452148 77.3508246,59.1609138 C78.5318712,58.9295679 79.1625735,58.7363046 79.1625735,58.6057522 C79.1625735,58.470448 71.9689406,58.5648678 70.1879307,58.7235442 C69.2495862,58.807141 68.8915605,58.7842899 68.5051833,58.6161328 C68.2352448,58.4986484 67.9828323,58.3933929 67.9442675,58.3822343 C67.9057052,58.3710731 67.6897392,58.2857068 67.4643421,58.1925252 C67.2389451,58.0993462 66.9549832,58.0619067 66.8333121,58.1093276 C66.7116436,58.1567511 64.845211,58.2182238 62.6856878,58.245936 C60.5261646,58.2736508 58.4753178,58.359223 58.1282522,58.4360951 C57.7811866,58.5129697 56.7410948,58.6491967 55.8169361,58.7388215 C54.89278,58.8284489 54.0159136,58.9664607 53.8683446,59.0455091 C53.7207757,59.12456 53.2918358,59.1595969 52.9151436,59.1233676 C52.5384515,59.0871358 52.1962271,59.1125878 52.1546422,59.1799463 C52.1130574,59.2472945 52.0202915,59.2660575 51.9484958,59.2216417 C51.8767002,59.1772284 51.8179576,59.2077602 51.8179576,59.289534 C51.8179576,59.3712875 51.7706298,59.4256441 51.7127838,59.4103236 C51.479528,59.3485432 50.2754385,59.6039123 50.2754385,59.7151653 C50.2754385,59.8521576 49.2161544,60.0798857 48.8156269,60.028997 C48.6683018,60.0102849 48.4292065,60.1223388 48.2843071,60.2780178 C48.1394078,60.4336967 47.9128804,60.5685331 47.7809122,60.5776527 C47.648949,60.5867545 47.1623587,60.6078513 46.6996037,60.6245015 C46.2368487,60.6411288 45.6058188,60.7276926 45.2973155,60.8168165 C44.9888121,60.9059455 44.4980105,61.014379 44.2066471,61.0577855 C43.9152812,61.1011868 43.7111109,61.1921261 43.7529396,61.2598633 C43.8834651,61.4712616 43.5718528,61.5266326 41.1355255,61.7249578 C41.0060643,61.7354833 40.9114086,61.8039452 40.9251831,61.8770672 C40.9389499,61.9501867 40.8240174,62.0471896 40.6697657,62.0926198 C40.5155141,62.1380551 40.2299876,62.2837043 40.0352636,62.4162906 C39.7805397,62.5897231 39.2494689,62.682681 38.1421737,62.7476445 C37.2957009,62.7973053 36.4572672,62.8313302 36.2789948,62.8232556 C36.1007173,62.8151961 35.7610558,62.9088837 35.5241856,63.0314911 C35.2795607,63.1581104 35.0561169,63.1987939 35.0069476,63.1256668 C34.8862341,62.9461274 34.3925445,62.7736762 34.5006926,62.9488223 C34.6146725,63.1334262 34.4782136,63.123971 34.1048514,62.9213923 C33.3512689,62.5125307 29.7837222,62.8233115 29.4115512,63.3302412 C29.2963292,63.4871787 29.2836952,63.5930494 29.3764916,63.6240108 C29.4562882,63.6506323 29.5215738,63.7283332 29.5215738,63.7966781 C29.5215738,63.8650205 29.4333038,63.8870326 29.3254173,63.8455914 C29.2175282,63.8041502 29.0875996,63.83771 29.0366828,63.9201779 C28.900709,64.1403983 29.7410908,64.1084556 30.1946256,63.8761613 C30.4028929,63.7694922 30.8572557,63.6357211 31.2043187,63.5788933 C31.5513869,63.5220605 31.9457803,63.455058 32.0807508,63.4299924 C32.2157213,63.4049243 32.3261504,63.4671522 32.3261504,63.5682763 C32.3261504,63.6983329 32.5005468,63.7384622 32.9221232,63.705416 C33.3828056,63.6693063 33.4617183,63.6914074 33.2697476,63.8028511 C33.1331541,63.8821334 33.0529739,63.9981381 33.0915641,64.0606406 C33.1748024,64.1954464 32.3907934,64.331015 30.8729427,64.4442765 C30.0206915,64.5078671 29.7425488,64.4826973 29.6480862,64.3334201 C29.5594427,64.1933388 29.5252797,64.1884828 29.5237227,64.3157504 C29.5205477,64.5741602 28.6776766,64.5324241 28.3757291,64.2589073 C28.2346854,64.131144 28.1192856,64.0863621 28.1192856,64.1593977 C28.1192856,64.239941 27.6641176,64.2542217 26.9623994,64.1956905 C26.3261117,64.1426204 25.3322402,64.0643982 24.7537958,64.0218638 C24.1753515,63.979332 23.4948017,63.8710993 23.2414646,63.7813525 C22.988125,63.6916031 22.6237772,63.6482247 22.431799,63.6849599 C22.2398232,63.7216925 22.042958,63.687248 21.9943195,63.6085225 C21.9399508,63.5204689 21.9766157,63.5090383 22.0894476,63.5788527 C22.2036409,63.6494933 22.2389723,63.6372873 22.182945,63.5465413 C22.0773496,63.3755214 21.4085498,63.2206026 20.6170452,63.1838293 C20.1501424,63.1621426 20.0535792,63.1072191 20.0409021,62.8561797 C20.0272877,62.586596 20.1240033,62.543187 20.9523887,62.447074 C21.4620829,62.3879402 22.036862,62.3532212 22.2296759,62.3699222 L22.5802493,62.4002938 L22.2081748,62.1978575 C21.5629539,61.8468101 20.9338086,61.6986821 19.7055586,61.6086276 C19.0499897,61.5605635 18.1034435,61.4180821 17.6021262,61.2920044 C16.4490958,61.0020255 12.4482314,60.9797896 12.273741,61.2623879 C12.2136928,61.3596424 12.0903327,61.3932988 11.9996115,61.3371727 C11.7653219,61.1922405 9.18476067,61.143439 9.27254053,61.2856051 C9.35464349,61.4185804 9.33374945,61.4208305 7.49932846,61.4765625 C6.20460666,61.515896 5.65810281,61.5638533 3.71947579,61.8082444 C2.835505,61.919683 2.31867343,61.8558534 1.81344712,61.5728484 C1.60186512,61.4543266 1.64746574,61.3869173 2.15701513,61.0649474 C2.56800491,60.8052588 3.07010194,60.6525086 3.82798459,60.5566143 C5.12135256,60.3929598 6.35537852,60.1867989 7.24445725,59.9858423 C7.7762672,59.86564 7.88233759,59.7913408 7.82661254,59.5780561 C7.78661516,59.4249576 7.67731642,59.3484262 7.56194962,59.3927403 C7.45385992,59.4342552 7.36542474,59.3983082 7.36542474,59.3128453 C7.36542474,59.227385 7.47585378,59.1565002 7.6108243,59.155318 C7.82054448,59.1535383 7.82563972,59.1334025 7.64588392,59.0171053 C7.51285142,58.9310526 7.49834802,58.8802503 7.60642502,58.8788927 C7.7006768,58.8776215 7.74098152,58.7819839 7.69630038,58.6654351 C7.63992254,58.5183799 7.7798359,58.3809326 8.15644423,58.2134034 L8.6975963,57.972676 L7.32747714,57.8880598 C6.57390996,57.8415185 5.58003845,57.8098376 5.11887352,57.8176555 C4.65770859,57.8254861 4.2803916,57.8239861 4.2803916,57.814325 C4.2803916,57.8046893 4.40659658,57.6511332 4.56084823,57.4731142 C4.71509989,57.29509 4.84130741,57.1921379 4.84130741,57.2443284 C4.84130741,57.2965214 4.98340771,57.2461081 5.15708528,57.132122 C5.33076286,57.0182147 5.94066511,56.8523687 6.51242926,56.7635752 C7.08418833,56.6747767 7.80191358,56.513868 8.10736635,56.4059939 C8.41282675,56.2981197 8.8914491,56.2076102 9.17097355,56.2048593 C9.95191686,56.1971812 11.9190859,55.6851972 11.3502605,55.6376746 C11.2795621,55.6317762 11.0955112,55.5978707 10.941257,55.5623432 C10.7870079,55.5268182 10.5837495,55.4808414 10.4895739,55.4601767 C10.1687389,55.3897725 10.1482462,55.253159 10.4444102,55.1590698 C10.60696,55.1074285 10.9048918,54.9121745 11.106484,54.7251706 C11.3080762,54.5381641 11.6138287,54.3851623 11.7859391,54.3851623 C11.9580469,54.3851623 12.1708532,54.2983341 12.2588439,54.1922142 C12.3903194,54.0336471 12.2746935,53.9828321 11.6099272,53.9070431 C11.1650335,53.8563221 10.6117199,53.7842272 10.3803437,53.7468386 C9.82988002,53.6578901 7.63947042,53.6707521 7.48902622,53.7638219 C7.28605991,53.8893835 5.68267985,53.9485961 5.68267985,53.830532 C5.68267985,53.7684897 5.77733295,53.6390967 5.89302233,53.5429938 C6.00871171,53.446891 6.10336481,53.3023045 6.10336481,53.2216926 C6.10336481,53.1410806 6.06184343,53.1166837 6.01109677,53.1674784 C5.96034757,53.2182756 5.83414259,53.1894701 5.73064013,53.1035039 C5.62643663,53.0169401 5.54245154,53.0070451 5.54245154,53.0813341 C5.54245154,53.1551172 5.4477959,53.2154866 5.33210652,53.2154866 C4.99533047,53.2154866 5.0877128,53.065167 5.55050334,52.8601222 C6.07094679,52.6295313 5.99642319,52.5328132 5.15739262,52.3499254 C4.39199666,52.1830853 4.2460889,51.9216017 4.79485081,51.7002067 C5.36276686,51.4710828 8.03095807,51.1737005 9.55622805,51.1695309 C10.2711695,51.167497 11.0235174,51.1239202 11.2281195,51.0725205 L11.6001178,50.9790668 L11.2005732,50.6519231 C10.9808251,50.4719922 10.6943258,50.322509 10.563907,50.3197327 C10.2315175,50.3126648 10.130489,50.0894012 10.3087818,49.7559498 C10.497044,49.4038473 11.7168358,48.7707076 12.2069314,48.7707076 C12.4135629,48.7707076 12.5330394,48.7101297 12.4837787,48.6303441 C12.4361105,48.5531465 12.2813788,48.4899831 12.1399287,48.4899831 C11.9023549,48.4899831 11.638205,48.1395662 11.6902547,47.8934489 C11.7431629,47.6432662 9.51827283,47.9230577 9.33207813,48.1899998 C9.18987115,48.3938802 5.60904779,48.9266815 5.2570292,48.7963375 L4.92181017,48.6722149 L5.24789536,48.4975365 C5.42723714,48.4014642 6.59230464,48.1529367 7.83693256,47.9452529 C10.1144489,47.565217 10.6687455,47.2969121 9.17635327,47.2969121 C8.7177893,47.2969121 8.29592833,47.2167375 8.15878611,47.1035166 C7.96399351,46.9427096 7.69429124,46.9382655 6.55819752,47.0771417 C4.46917201,47.3325058 3.25510284,47.5079036 2.97038662,47.5954767 C2.78175352,47.6534969 2.72502516,47.6119006 2.7600416,47.441224 C2.81107528,47.1924753 3.24491998,46.9006202 3.92506846,46.6574876 C4.51050543,46.4482148 4.1465971,46.2637024 3.39805149,46.390276 C3.0735157,46.4451512 2.52402481,46.5345446 2.17695921,46.5889292 L1.54592925,46.6878083 L2.07178798,46.1833905 C2.36101015,45.9059634 2.59764671,45.6564037 2.59764671,45.6288135 C2.59764671,45.6012259 2.20634193,45.5343404 1.7280828,45.4801821 C0.597295142,45.3521238 -0.00775824795,45.0348268 7.51119109e-05,44.5739883 C0.00418991184,44.3309575 0.911368676,44.0049172 1.7554767,43.9430808 C2.10298172,43.9176263 2.89212414,43.7964452 3.50913077,43.6737946 C4.12613994,43.551144 5.07276236,43.4223713 5.61273841,43.3876344 C6.15271446,43.3528976 6.97305063,43.2579414 7.43571162,43.1766251 C10.309084,42.6715946 10.9557934,42.5472889 11.0796413,42.4762084 C11.1557498,42.4325273 10.9348892,42.3277854 10.5888371,42.2434488 C10.240598,42.1585783 9.95965624,42.0078062 9.95965624,41.9057847 C9.95965624,41.6695878 11.3730189,41.1565156 12.6557417,40.9270637 C13.2797219,40.8154446 13.7413949,40.6493901 13.8925553,40.4821991 C14.027851,40.3325609 14.497276,40.1438434 14.9617099,40.052383 C16.0154416,39.8448797 15.986986,39.6480672 14.8420378,39.224602 C14.5965646,39.1338103 14.4241621,38.986478 14.4589195,38.8971939 C14.5380252,38.6939822 15.1879934,38.383959 15.5349269,38.383959 C15.6783556,38.383959 15.7567045,38.3207955 15.7090388,38.2435955 C15.6613707,38.1663979 15.152822,38.1032345 14.5789319,38.1032345 C13.6333839,38.1032345 13.2536844,37.959726 13.7107777,37.7751094 C14.1192072,37.6101481 12.0727228,37.6994577 11.0619222,37.8907023 C9.80316684,38.128867 9.11828379,38.0291794 9.11828379,37.6077989 C9.11828379,37.4135441 9.48457211,37.1584826 10.4947148,36.6493435 C11.4462954,36.1697166 11.8141991,35.9187738 11.6866581,35.8363339 C11.4443954,35.6797447 11.6835085,35.5196471 12.624007,35.2087112 C13.9515265,34.7698289 15.0046588,34.0341515 14.8663964,33.6422655 C14.7719592,33.3746064 15.2893724,33.228614 17.4270593,32.9197628 C18.4896174,32.7662449 19.5537326,32.5433906 19.791756,32.4245358 C20.029782,32.3056835 20.5337053,32.171348 20.9115887,32.1260119 C21.9535525,32.001007 23.9472925,31.496157 24.2591384,31.2783493 C24.4112692,31.1720972 24.7267855,31.0807232 24.9602826,31.0752952 C25.1937822,31.0698799 25.5110308,31.0111478 25.6652824,30.9448013 C25.8886043,30.8487468 25.831467,30.8199566 25.3848258,30.8034945 C24.1895755,30.7594372 23.5553324,30.6414824 23.3968643,30.4337783 C23.2886857,30.291991 23.1196868,30.2483888 22.9060627,30.3071437 C22.6256924,30.3842599 22.6148314,30.3750767 22.8281812,30.2413031 C22.9645462,30.1557996 23.1854068,30.1038379 23.3189829,30.1258246 C23.4525589,30.1478164 23.646747,30.1125787 23.750506,30.047483 C23.8621263,29.9774754 24.0803936,30.0048139 24.285021,30.1144321 C24.5545608,30.2588203 24.689417,30.2631093 24.896178,30.1338815 C25.0640365,30.028954 25.1926621,30.0185378 25.2463704,30.1055261 C25.2930607,30.1811448 25.6903827,30.2452515 26.1293023,30.2479871 C26.5682245,30.2507075 27.0850992,30.3432281 27.2779131,30.4535556 C27.6979809,30.6939144 27.838829,30.7115384 27.838829,30.5237361 C27.838829,30.4465386 27.7404497,30.3833751 27.6202086,30.3833751 C27.4999676,30.3833751 27.4361577,30.3273914 27.4784055,30.2589703 C27.5206533,30.1905491 27.4230741,30.0999786 27.2615632,30.0577009 C27.1000547,30.0154259 26.9953255,29.8977101 27.0288382,29.7961131 C27.0906771,29.6086312 27.7188038,29.4987791 29.6618022,29.3356407 C31.4171809,29.1882576 31.9054629,29.1089346 31.9054629,28.9711592 C31.9054629,28.8986906 31.8108098,28.8393992 31.6951229,28.8393992 C31.5782652,28.8393992 31.4847779,28.7146333 31.4847779,28.5586747 C31.4847779,28.3528112 31.5782652,28.2779527 31.8353512,28.2779527 C32.2387312,28.2779527 32.3075195,28.0617976 31.9351555,27.9643295 C31.7972335,27.9282299 31.0873263,27.9324224 30.3575818,27.9736347 C28.232214,28.0936946 27.3820252,28.0537433 26.9373957,27.8129192 C26.711549,27.690589 26.4863323,27.6155169 26.4369115,27.6460893 C26.3874933,27.6766617 26.3731321,27.5238607 26.404999,27.3065361 C26.4745289,26.8323373 26.2772979,26.7583762 24.8374837,26.71873 C23.9757608,26.6949839 23.9088775,26.6736964 24.2083511,26.5183403 C24.7010273,26.2627627 26.5082703,25.8959677 27.5859796,25.832822 C28.1367608,25.8005513 28.657029,25.6852889 28.8441863,25.554078 C29.2425523,25.2747849 29.4826102,25.2712993 29.7519518,25.540883 C29.8731073,25.6621556 30.2107444,25.7501456 30.548252,25.7484015 C31.5875793,25.7430371 35.4653592,25.3482883 35.9918554,25.1942517 C36.4835131,25.0504102 36.4984229,25.0271879 36.3946943,24.5668299 C36.3293351,24.2767468 36.3440391,24.0316642 36.4321009,23.9435191 C36.5321083,23.8434171 36.5277954,23.7386523 36.4182325,23.6065058 C36.0832319,23.2024747 36.5093855,23.1188271 38.5558381,23.1869203 C40.1459136,23.2398328 40.64194,23.2108443 40.9645911,23.04615 C41.3059646,22.8719039 42.8450522,22.6315553 43.8950348,22.5885251 C44.0492865,22.5822199 44.4910077,22.5205667 44.8766356,22.4515506 L45.5777797,22.3260703 L44.9467523,22.2239699 C44.5996841,22.1678108 43.5584848,22.1540767 42.6329749,22.1934484 C41.7074649,22.2328175 40.3823012,22.2566245 39.6881701,22.2463507 C38.9940389,22.2360794 37.6373233,22.3305576 36.6732511,22.4563049 C34.7656832,22.7051171 32.7984659,22.8791599 31.951602,22.8740395 C31.6562914,22.8722598 31.3750321,22.9259503 31.3265893,22.9933697 C31.2781438,23.0607866 31.0415073,23.124006 30.8007305,23.1338578 C30.5599538,23.1437223 30.3629539,23.2040637 30.3629539,23.2679798 C30.3629539,23.3319009 30.220973,23.3442239 30.0474402,23.295364 C29.8004481,23.2258242 29.7776058,23.2385438 29.9422664,23.3539384 C30.1235919,23.4810052 30.1187532,23.5016418 29.9072119,23.5034927 C29.7722414,23.5047639 29.6618098,23.5760682 29.6618098,23.6621463 C29.6618098,23.7582644 29.5284445,23.7311852 29.3161717,23.5919658 C28.932304,23.3402094 28.7639985,23.3006801 28.8807014,23.4896849 C28.9229467,23.5581061 28.8320172,23.6469376 28.6786317,23.6870873 C28.5190206,23.7288666 28.3997321,23.6906721 28.3997117,23.5977726 C28.3996863,23.5037978 28.1782923,23.4354606 27.873853,23.4354606 C27.5396322,23.4354606 27.3599958,23.4969486 27.3808593,23.6042049 C27.4034653,23.7203394 27.2523379,23.7522719 26.8961537,23.7066256 C26.3123855,23.6318129 25.7364786,23.3047632 25.7332579,23.0462339 C25.7317339,22.9357207 25.6824046,22.9494522 25.5951759,23.0845581 C25.4896694,23.247971 25.4587601,23.2066316 25.4570939,22.8998779 C25.4543507,22.3936245 25.6853941,21.9616727 25.9589496,21.9616727 C26.0764754,21.9616727 26.1336355,21.8985093 26.0859699,21.8213118 C26.0383017,21.7441117 26.1134578,21.6761151 26.25298,21.6702091 C26.7150771,21.6506326 27.0085639,21.5655892 27.3210144,21.360669 C27.6011688,21.1769295 28.2595139,21.2476516 28.2595139,21.4614829 C28.2595139,21.5001427 28.1749726,21.4993012 28.0716403,21.459449 C27.968308,21.4197621 27.7947752,21.4970308 27.6860099,21.6311603 C27.5155911,21.8413281 27.5157791,21.8584308 27.6875339,21.7548838 C27.8406755,21.6624777 27.8638632,21.6941738 27.7879553,21.8921711 C27.7289181,22.046172 27.7616003,22.1955509 27.8692988,22.2639517 C28.1375838,22.4343436 28.3634786,22.4022915 28.1194482,22.2284598 C27.9611731,22.1157119 28.0424227,22.0971981 28.4476796,22.1536699 C28.7455556,22.1951747 29.1008203,22.1571022 29.2426082,22.0684664 C29.4366642,21.9471607 29.5488687,21.9496726 29.7043167,22.078814 C29.869912,22.2163783 29.9307247,22.2011544 30.0184232,22.0001901 C30.0782377,21.863119 30.1171581,21.703601 30.1049128,21.6457029 C30.09267,21.5878022 30.1720475,21.5404322 30.2813082,21.5404322 C30.3905713,21.5404322 30.504023,21.4681923 30.533426,21.3799023 C30.5628265,21.2916123 30.7720107,21.1996129 30.9982739,21.1754677 C31.2245371,21.1513148 31.4801627,21.0350507 31.5663348,20.9170934 C31.6525094,20.7991335 31.774155,20.7490177 31.8366619,20.8057133 C31.8991687,20.8624089 31.9106826,20.798264 31.8622549,20.663176 C31.7538554,20.3607927 32.0220641,20.3325263 32.1376951,20.6341392 C32.2111849,20.8258364 32.2509943,20.8233296 32.4838691,20.6123762 C32.7324665,20.3871854 32.7471173,20.3887871 32.7491442,20.6414003 C32.7509222,20.8654241 32.773325,20.874648 32.8872262,20.6982459 C33.089875,20.3843812 33.0609546,20.3160159 32.685634,20.2217309 C32.447603,20.1619311 32.3505648,20.0461221 32.3660538,19.8403323 C32.3907426,19.5125022 32.8792125,19.2674349 33.4420257,19.3005319 C33.9666271,19.3313941 34.4297428,19.1507564 34.4297428,18.9152866 C34.4297428,18.7637085 34.5691151,18.7192292 34.955604,18.7474728 C35.5207743,18.7887614 36.4715878,18.630779 36.8136318,18.4387335 C36.9834943,18.343368 36.9700018,18.3185414 36.7435202,18.3097269 C36.589266,18.3037777 36.1475473,18.2692086 35.7619169,18.2330201 C34.5695012,18.1211314 32.9833982,18.124645 32.4112124,18.2404693 C32.0184065,18.3199677 31.8925012,18.306587 31.96275,18.1928119 C32.0230776,18.0951125 31.9851528,18.0635435 31.8635376,18.1102576 C31.7481886,18.154564 31.5620498,18.0260786 31.4140618,17.8000056 C31.233389,17.5240023 31.2096375,17.3980746 31.3306355,17.357691 C31.4442573,17.3197914 31.4167821,17.2360701 31.2469704,17.1027312 C31.0165111,16.9217833 31.0313701,16.9106984 31.4148263,16.9773857 C31.6462,17.0176319 31.7566316,17.0133378 31.6602259,16.9678262 C31.3050856,16.8002488 31.5006783,16.6277798 32.0458182,16.6277798 C32.3999196,16.6277798 32.6075239,16.6924713 32.6088778,16.8032285 C32.6104018,16.9323343 32.6428731,16.9283758 32.7315801,16.7882538 C32.8073203,16.6686057 32.8849148,16.6509157 32.94033,16.7406574 C33.0344649,16.8931152 33.2129761,16.88126 33.6512633,16.693445 C33.8015601,16.6290409 34.131943,16.5721241 34.3854426,16.5669706 C34.9666378,16.5551739 35.1553369,16.206702 34.5805349,16.206702 C34.3532024,16.206702 34.1442671,16.1154348 34.0985369,15.9961605 C34.0440692,15.8540935 34.1053441,15.7856165 34.2869109,15.7856165 C34.4349066,15.7856165 34.6064633,15.7066647 34.6681395,15.6101678 C34.8289546,15.3585487 35.4004266,15.0605104 35.547551,15.151531 C35.6162123,15.1939993 35.7120211,15.1645989 35.7604665,15.0860971 C35.8089094,15.0076513 36.0226783,14.9434455 36.2355049,14.9434455 C36.4483315,14.9434455 36.9652063,14.8408697 37.3841158,14.7155114 C38.045326,14.5176184 38.1047366,14.4721577 37.8346229,14.3707463 C37.6634954,14.3065048 36.4926088,14.2624959 35.232652,14.2729629 C33.9726977,14.2835139 32.8593726,14.2410075 32.7586006,14.1786652 C32.6542523,14.114111 32.5340722,14.1322104 32.4794292,14.2207115 C32.3667497,14.4031975 28.0075688,14.5415398 27.89922,14.3660556 C27.8611327,14.3043692 27.7320474,14.2915072 27.6123626,14.3374891 C27.4649791,14.3940983 27.4455811,14.4525201 27.5522535,14.5185006 C27.6388802,14.5720919 27.5179635,14.6159382 27.2835519,14.6159382 C27.049143,14.6159382 26.8573501,14.5555688 26.8573501,14.4817781 C26.8573501,14.40799 26.7611705,14.4275283 26.6436167,14.5251795 C26.5260655,14.6228281 26.385027,14.6578243 26.330196,14.6029414 C26.2753701,14.5480586 26.3873257,14.383682 26.578989,14.2376566 L26.9274643,13.9721305 L26.5768909,14.0395907 C26.2696856,14.0986939 26.2610115,14.0905379 26.5067793,13.9736585 C26.9112057,13.7813385 27.575845,13.8012404 27.9654556,14.0173548 C28.3451881,14.2279853 28.8205542,14.1585777 28.8205542,13.8925076 C28.8205542,13.7699434 29.0974472,13.7148877 29.7320408,13.7113003 C30.3039294,13.7080715 30.6435299,13.7636001 30.6435299,13.8603563 C30.6435299,13.9451811 30.7224071,13.9110798 30.8188128,13.78458 C30.9454267,13.6184416 31.3250932,13.5295567 32.1860465,13.464494 C32.8416154,13.4149502 33.7762998,13.2853105 34.2631213,13.1764016 C34.7499453,13.0675054 35.3494209,12.9723255 35.5952954,12.9649144 C35.8411674,12.9574651 36.3578517,12.8651937 36.7434821,12.7597857 C37.4009585,12.5800784 37.3267219,12.5729038 35.5515363,12.6447063 C34.510337,12.6868162 33.5637933,12.7223081 33.4481064,12.7235742 C33.3324171,12.7248454 31.8810458,12.8739446 30.2228424,13.0548925 C28.5646365,13.2358532 26.7568169,13.4032068 26.2054693,13.42678 C25.6541217,13.4503735 25.2319,13.5170201 25.2672009,13.5749182 C25.3025018,13.6328164 25.0594746,13.6804508 24.727136,13.6807483 C24.3948024,13.6807483 23.5549616,13.7728367 22.8608304,13.8846617 C21.6705305,14.0764352 18.8705666,14.2742036 19.2508122,14.1396342 C19.3477005,14.1053601 19.3913022,14.0195286 19.3477082,13.9489286 C19.3041141,13.8783311 19.4457014,13.817527 19.6623481,13.8138151 C19.8789974,13.8102049 20.2771145,13.6872289 20.547053,13.5407305 C20.8169965,13.3942449 21.1640596,13.2154809 21.3183138,13.1434928 C21.8253232,12.9068433 30.0958678,11.537322 32.0458182,11.3671234 C32.62426,11.3166363 34.2964867,11.1502005 35.7618788,10.9972953 C37.2272708,10.8443799 39.1614071,10.6579836 40.05996,10.5830768 C40.9585155,10.5081446 41.9973196,10.3553894 42.368411,10.2436126 C42.8558929,10.0967659 43.069959,10.0838073 43.1398192,10.1969493 C43.228389,10.3404044 44.7037022,10.3011268 46.4893832,10.1077898 C46.7593242,10.0785547 47.6112148,10.0151828 48.3824731,9.96695339 C49.7663895,9.88041508 51.8748638,9.589254 53.0550341,9.32173218 C53.3882948,9.2461923 53.720029,9.22091573 53.7922208,9.2655705 C53.8644127,9.31023544 54.8414135,9.20758337 55.9633341,9.03747373 C57.6233104,8.78576566 58.0629463,8.76016874 58.3240786,8.90007464 C58.5866562,9.04072546 58.9229395,9.01712688 60.1745905,8.77023666 C62.258122,8.35924196 64.9769125,7.8249407 66.3317612,7.56021045 C66.9487678,7.43964461 67.845177,7.25141018 68.3237841,7.14193176 C68.8023887,7.03243809 69.4018668,6.94316923 69.6559582,6.94354297 C69.9100471,6.94354297 70.4019003,6.85328003 70.7489685,6.7420982 C71.3338796,6.55473327 72.5314337,6.34673419 75.7270915,5.87748287 C77.3688103,5.63641475 77.6995234,5.58077426 79.3730405,5.26412814 C80.1442987,5.11820183 81.4063561,4.89456189 82.1776144,4.76714173 C82.9488727,4.63972412 83.769214,4.50415048 84.0005902,4.46586443 C85.6379224,4.19501461 85.9497404,4.20004348 86.275376,4.50261233 C86.4510729,4.66586765 86.5948217,4.8711489 86.5948217,4.95879062 C86.5948217,5.04643488 86.6421495,5.11066615 86.6999955,5.10152875 C86.7578389,5.0924778 86.9493676,5.0924778 87.1256156,5.10152875 C87.3935856,5.11541027 87.4231004,5.16109217 87.3058337,5.38041002 C87.1341678,5.70148756 87.2714878,5.87466588 87.5284647,5.66119301 C87.8176056,5.42100457 87.7517612,5.63704019 87.4191152,6.01998456 C87.2446222,6.22085728 86.8941632,6.40095857 86.5716543,6.45549565 C86.1007764,6.53513134 86.0470427,6.57902593 86.1978222,6.76086877 C86.424121,7.03379319 86.2329403,7.05072559 95.2188937,5.96241947 C95.8359003,5.88768807 96.9402034,5.79625817 97.6728994,5.75923824 C98.4055929,5.72222086 99.7307566,5.6254392 100.617702,5.54417637 C101.504647,5.46292626 102.672054,5.37142263 103.211936,5.34083498 C103.751815,5.31026004 104.443076,5.21979625 104.748067,5.13981226 C105.05306,5.05984097 106.263014,4.99050964 107.43685,4.98576806 C108.61069,4.98103919 109.65476,4.94899728 109.757008,4.91458586 C110.009334,4.82968485 113.295352,4.65737857 114.077253,4.68805266 C114.422993,4.70165452 114.802377,4.80011416 114.920327,4.90695102 C115.184599,5.14634369 115.857668,5.17033889 118.987675,5.05199511 C120.426473,4.99757243 121.747811,4.87385402 122.181679,4.75291699 C122.747812,4.59510749 123.686825,4.55190698 126.178199,4.56906311 C127.969287,4.58147004 130.949192,4.54381705 132.800212,4.48557823 C136.551333,4.36753445 136.350779,4.36619207 140.232339,4.53485 C142.745435,4.64404366 144.195246,4.64857677 146.402407,4.55414684 C146.788035,4.53764664 146.99312,4.49525461 146.858149,4.45994826 C146.723181,4.42465717 146.61275,4.32973909 146.61275,4.24904576 C146.61275,4.15225394 147.006371,4.1301452 147.769639,4.18408482 C148.405926,4.22905993 150.31479,4.32986113 152.01156,4.40809595 C153.708326,4.48634095 155.88538,4.61514925 156.849453,4.69434002 C160.722668,5.01251159 162.199825,5.12464936 164.21146,5.25318309 C169.242407,5.57468267 171.894487,5.70278419 174.658512,5.75781704 C175.931091,5.7831648 177.508657,5.84693589 178.164233,5.89952296 C178.819794,5.95212019 179.797895,5.98948843 180.33778,5.98256038 C180.877654,5.97574674 181.950408,6.03208131 182.721671,6.1080178 C183.492924,6.1839543 185.990755,6.27389435 188.272366,6.30789645 C190.554,6.34189854 192.699507,6.43127926 193.040149,6.50652168 C193.380804,6.5817641 194.15528,6.67753896 194.761223,6.71934878 C195.367163,6.7611586 196.061299,6.82786109 196.303739,6.86757342 C197.132884,7.00337079 198.427367,7.09570579 200.320386,7.15406411 C201.987373,7.20544607 203.607082,7.32878058 205.999643,7.58653449 C206.385281,7.62805956 206.921658,7.67967797 207.191594,7.70121466 C207.461532,7.72277424 208.155666,7.78092662 208.73411,7.83048314 C209.312557,7.88003966 210.290569,7.95921772 210.907474,8.00645303 C211.524366,8.05366291 212.060743,8.1117619 212.099412,8.13554608 C212.138084,8.15934298 212.528583,8.2169462 212.967206,8.26363489 C213.405826,8.3103007 213.857135,8.38398971 213.970084,8.42738853 C214.083056,8.47077718 214.733832,8.52508799 215.416248,8.54809165 C217.29054,8.6112424 217.288073,8.61085596 217.288073,8.83772475 C217.288073,8.95352358 217.354896,9.04826623 217.436564,9.04826623 C217.518261,9.04826623 217.539455,8.97437891 217.483681,8.88406513 C217.41455,8.77209007 217.460186,8.7497576 217.627102,8.81387701 C217.761768,8.86560474 218.011092,8.90791287 218.181191,8.90791287 C218.38992,8.90791287 218.497314,8.99915717 218.511563,9.1886323 C218.536811,9.52417357 218.460713,9.5402746 218.179514,9.25881025 C217.886002,8.96501778 217.557649,8.98704008 217.656274,9.29390304 C217.704842,9.44504636 217.68966,9.47919591 217.616808,9.38267612 C217.53612,9.27577825 217.141104,9.25570598 216.376587,9.31967538 C215.060559,9.42977668 214.067219,9.39947378 212.239831,9.19348575 C211.50714,9.11089578 210.560591,9.00935983 210.136394,8.96783477 C209.712211,8.92633512 209.291473,8.86828697 209.201468,8.83881544 C209.11144,8.80936933 209.001047,8.88106255 208.956175,8.99812495 C208.895738,9.15578445 208.762574,9.1863721 208.44278,9.1160594 C207.940472,9.00562504 207.617603,8.9636398 206.28011,8.83478065 C205.740223,8.78276562 205.260749,8.71697332 205.214623,8.6885823 C205.116322,8.62808836 203.240728,8.61814248 200.670952,8.66450574 C199.040503,8.69390101 197.890904,8.61355853 197.033171,8.41026544 C196.549863,8.29572002 193.168711,8.2461635 193.168711,8.35364358 C193.168711,8.40891288 193.594657,8.49975803 194.115258,8.55553581 C194.635858,8.61132376 195.188011,8.68186019 195.34226,8.71231309 C196.42429,8.92593342 199.322123,9.16535151 201.65256,9.2336786 C202.192435,9.24951777 202.700879,9.30522182 202.782426,9.35748345 C202.918021,9.4443955 207.212033,9.77955032 207.442432,9.72121743 C207.497275,9.70731048 208.015433,9.74013291 208.593877,9.7941488 C209.488163,9.87763369 211.771917,10.0456459 212.345005,10.0701139 C212.552185,10.0789361 212.576617,10.260123 212.386465,10.3777472 C212.250014,10.4621627 211.192962,10.4816527 210.236371,10.4173859 C209.944271,10.3977585 209.654007,10.2985717 209.591312,10.1969621 C209.506517,10.0595121 209.265552,10.0365593 208.649973,10.1073195 C208.194932,10.1596319 207.780384,10.2275497 207.728753,10.2582619 C207.677135,10.2889869 207.539183,10.2183004 207.42218,10.1011999 C207.305188,9.98410953 207.17608,9.94237344 207.135264,10.0084912 C207.056049,10.1367656 204.225735,10.0821319 203.405419,9.93650049 C203.13547,9.88857111 202.659668,9.83633235 202.348058,9.82041691 C202.036448,9.80450147 201.642055,9.71677331 201.471633,9.62547816 C201.223859,9.49275963 201.161748,9.49705629 201.161748,9.64691061 C201.161748,9.75722294 200.974263,9.84945878 200.706011,9.87113531 C199.597205,9.96068891 198.045214,9.95219728 196.814665,9.84985539 C195.929597,9.77625283 195.551722,9.78545124 195.68877,9.8773286 C196.24153,10.2477898 195.20447,10.4304996 193.589399,10.2471821 C192.157611,10.0846565 191.901663,10.0761038 191.282848,10.1701016 C190.963588,10.218603 190.515852,10.2082503 190.287871,10.1470928 C189.687337,9.98603158 186.565791,9.70080447 185.175674,9.67998728 C184.520098,9.6701736 183.573552,9.61893401 183.072237,9.56616135 C182.570922,9.51339123 181.561272,9.4377878 180.828579,9.3981619 C180.095885,9.35853601 178.36055,9.23325401 176.97228,9.11975352 C175.584025,9.00625047 173.519109,8.87093616 172.383587,8.81907114 C170.533169,8.73454386 170.30973,8.74900505 170.22941,8.95850669 C170.153025,9.15776498 169.909307,9.19136792 168.577928,9.18628058 C167.71888,9.18305172 166.732074,9.23154043 166.385009,9.29415728 L165.753976,9.40803151 L166.805696,9.56453676 C167.384141,9.6506149 168.078274,9.71931571 168.348213,9.7171928 C168.618149,9.71490464 169.722454,9.81115493 170.802213,9.93070127 C171.881975,10.0502374 173.932827,10.2185725 175.359654,10.3047625 C176.786481,10.3909423 178.094259,10.4916825 178.265808,10.5286389 C178.437382,10.5655952 179.857201,10.6573226 181.420963,10.7324659 C184.23146,10.8675437 186.200752,10.9777671 187.699787,11.0839327 C188.123984,11.1139738 189.579176,11.202513 190.933549,11.2807071 C192.287933,11.3588911 193.486895,11.4509922 193.597895,11.4853655 C193.708921,11.5197413 193.925949,11.5956397 194.080198,11.6540234 C194.234445,11.7124071 194.603252,11.7776935 194.899757,11.7991438 C195.196246,11.8206016 195.512011,11.9382691 195.601432,12.0606731 C195.73054,12.2374108 196.095863,12.290692 197.376107,12.319505 C198.262763,12.3394629 199.051306,12.3946483 199.128435,12.4420946 C199.205565,12.4895536 199.741942,12.565452 200.320386,12.6107525 C203.085565,12.827317 205.849811,13.0032106 207.121472,13.0435204 C207.892735,13.0679783 209.533418,13.1982739 210.767426,13.3330899 C212.001434,13.4678958 213.579013,13.59916 214.273147,13.6247849 C219.077384,13.8021302 222.914371,14.0254727 224.930532,14.245116 C225.624668,14.3207423 226.841336,14.4232317 227.634243,14.4728772 C228.427162,14.5225328 229.109241,14.6171534 229.149982,14.6831339 C229.190727,14.7491398 229.015268,14.8082557 228.760042,14.8145354 C228.504838,14.820866 228.117886,14.8388662 227.90015,14.854708 C227.682414,14.8705217 227.476846,14.8390468 227.443298,14.7847309 C227.409773,14.7304302 227.149189,14.7504415 226.864206,14.8291975 C226.574984,14.9091306 225.940482,14.9314529 225.427966,14.8797354 C224.923003,14.8287627 222.238145,14.7623475 219.46162,14.7321184 C216.685082,14.7019045 213.372178,14.6363944 212.0996,14.5865531 C209.831296,14.4977037 209.188534,14.5520527 210.676542,14.7068571 C211.089318,14.7498084 211.457567,14.8155041 211.494872,14.8528469 C211.594884,14.952954 211.082112,15.2006273 210.656761,15.2576331 C210.161126,15.3240712 210.004733,15.5018792 210.428532,15.5171107 C210.614927,15.5238227 211.587767,15.5881556 212.590397,15.6601082 C213.593039,15.7320607 215.565003,15.8282449 216.972557,15.8738658 C219.286362,15.9488489 219.531732,15.9803798 219.531732,16.2028019 C219.531732,16.5115285 220.096262,16.5845361 223.498447,16.7157902 C224.870319,16.768723 226.025683,16.8653165 226.065904,16.9304656 C226.106138,16.995602 226.415553,17.0489086 226.753515,17.0489086 C227.905558,17.0489086 227.582625,17.4364877 226.167481,17.7522542 C225.768038,17.841373 225.231662,17.9026755 224.975541,17.8884609 C223.267652,17.7937284 223.71565,18.0700902 225.631686,18.2932216 C226.402939,18.3830498 227.475693,18.4871307 228.015565,18.5245218 C228.555452,18.5619129 229.53355,18.6554632 230.189114,18.7324065 C230.844691,18.8093625 232.169854,18.9139747 233.133927,18.9648736 C234.321115,19.0275642 234.932031,19.1167975 235.027009,19.24136 C235.104695,19.3432671 235.605006,19.4660423 236.148838,19.5166793 C236.688723,19.5669426 237.193548,19.6851873 237.270677,19.7794469 C237.347797,19.8737065 237.871758,19.9934409 238.435049,20.045517 C238.998337,20.0976083 239.600645,20.2329836 239.773532,20.3463621 C239.971637,20.4762865 240.57811,20.5753512 241.413719,20.6142703 C243.215443,20.6982001 244.627073,20.8563681 244.705331,20.9830916 C244.787551,21.1162703 243.559689,21.3065158 243.371043,21.1898221 C243.293675,21.1419664 243.230404,21.162687 243.230404,21.2358421 C243.230404,21.3090099 243.451282,21.4103476 243.721208,21.4610329 C244.254151,21.561107 244.354912,21.7357167 243.966623,21.8863846 C243.508407,22.064185 244.149655,22.3458044 245.591283,22.5998693 C246.802126,22.8132659 247.567326,23.0770097 247.009568,23.0887175 C246.485337,23.0997261 247.294632,23.3471426 248.137099,23.4334241 C248.637251,23.4846459 249.119825,23.5874835 249.209462,23.6619454 C249.299098,23.7364099 249.771538,23.861669 250.25932,23.940303 C251.614664,24.1587793 251.600008,24.334317 250.217385,24.4430886 C249.700799,24.4837264 249.228512,24.604127 249.086475,24.7313819 C248.887212,24.9099297 248.64355,24.931291 247.754321,24.8481671 C245.946146,24.6791431 245.588159,24.7120316 245.316785,25.0721325 C245.183968,25.2483693 245.102612,25.4367461 245.135937,25.4907468 C245.169287,25.5447449 245.621839,25.6331366 246.141625,25.6871703 C246.66141,25.7412065 247.149801,25.8349907 247.226941,25.8955889 C247.304056,25.9561896 247.666894,26.0504339 248.033239,26.1050219 C249.038647,26.2548381 248.832297,26.4531251 247.670984,26.4531251 C247.105377,26.4531251 246.594862,26.5004977 246.536468,26.5583984 C246.478098,26.616294 245.889911,26.6636666 245.229409,26.6636666 C244.394257,26.6636666 244.010158,26.7171029 243.96835,26.8391204 C243.9271,26.9593608 244.077341,27.0148157 244.445717,27.0153547 C244.741373,27.0156039 245.204136,27.0740766 245.474062,27.1448901 C245.744013,27.2157062 246.499003,27.3136091 247.151833,27.3624486 C247.804664,27.4112907 248.409946,27.510358 248.496916,27.5825979 C248.58386,27.6548377 248.691784,27.6771422 248.736717,27.6321646 C248.78165,27.5871869 248.965165,27.6028557 249.144514,27.6669878 C249.396279,27.7570169 249.246876,27.8039674 248.488991,27.8730013 C247.594631,27.9544675 246.574568,28.1593064 246.03497,28.365808 C245.692553,28.4968536 246.225089,28.640896 247.822901,28.849401 C248.613425,28.952559 249.260236,29.0744317 249.260236,29.1202203 C249.260236,29.1660116 249.670421,29.1773354 250.171741,29.1453901 C250.904251,29.0986989 251.08322,29.1275679 251.08322,29.2924351 C251.08322,29.5468584 250.63938,29.96291 250.371029,29.9600193 C250.206158,29.9582396 250.208088,29.9343563 250.381951,29.8218041 C250.560945,29.7060205 250.555078,29.685422 250.342505,29.683594 C250.205116,29.6823228 250.055104,29.7794654 250.009181,29.8992686 C249.938035,30.0848589 249.684493,30.1062329 248.295773,30.0436974 C246.555568,29.9653304 246.127858,30.0582145 246.448457,30.4448733 C246.985413,31.0924895 249.17507,31.7868655 250.680325,31.7868655 C251.589747,31.7868655 252.064701,31.9571074 252.064701,32.2830689 C252.064701,32.4462352 251.840368,32.487984 250.977937,32.4853246 C250.380199,32.483545 249.638747,32.4154518 249.330239,32.3341432 C249.02173,32.2528371 247.568165,32.1576979 246.100096,32.1227246 C243.503962,32.0608806 243.430251,32.066868 243.409601,32.3413229 C243.389281,32.611255 243.560451,32.8056674 243.861314,32.8543926 C243.938454,32.8668758 244.543406,32.9793008 245.205685,33.1042091 C247.373093,33.5129995 249.297549,33.7620101 251.267217,33.888543 C253.09208,34.0057706 253.714431,34.1665217 253.525862,34.4719279 C253.482809,34.541638 253.387305,34.5613696 253.313594,34.5157716 C253.239883,34.4701736 253.196906,34.5165343 253.218115,34.6187542 C253.239451,34.7215588 253.147656,34.7960385 253.012756,34.785396 C252.878619,34.7748196 252.799168,34.8152591 252.836226,34.875275 C252.87331,34.9352935 252.689414,35.0246234 252.427591,35.0737884 C251.861679,35.1800532 251.727491,35.4330579 252.01733,35.8472662 C252.171788,36.0679824 252.188272,36.1995873 252.078087,36.3324686 C251.897391,36.5503805 252.0154,36.6995178 252.368536,36.6995178 C252.509938,36.6995178 252.625609,36.7259334 252.625609,36.7582168 C252.625609,36.7905054 252.667494,36.9261807 252.7187,37.0597204 C252.804222,37.2827807 252.710064,37.2949537 251.561807,37.2094425 C250.87433,37.1582487 250.075195,37.078824 249.785966,37.0329438 C249.367475,36.9665566 249.260109,36.9942179 249.260109,37.1684514 C249.260109,37.2888596 249.158408,37.4443504 249.034075,37.5139894 C248.71307,37.6938084 248.905805,38.5025545 249.308395,38.6650954 C249.596228,38.7813112 249.597294,38.7880434 249.330239,38.8059089 C249.049772,38.8246718 249.049772,38.8246718 249.330239,38.9453012 C249.603797,39.0629713 249.221654,39.1132676 247.787722,39.1483147 C247.189578,39.1629335 246.735985,39.3518696 246.735985,39.586386 C246.735985,39.7117112 246.590697,39.7881917 246.350362,39.7893867 C246.138272,39.7906579 245.82128,39.8297727 245.645944,39.8767919 C245.34696,39.9569793 245.342591,39.9740007 245.57584,40.151135 C245.712593,40.2550049 245.997124,40.3419958 246.208122,40.3444517 C246.419094,40.3469941 247.008044,40.5699858 247.516882,40.8401796 C248.030089,41.1127024 248.646217,41.3314482 248.900623,41.3314482 C249.750431,41.3314482 251.075955,41.5101537 251.010652,41.6159151 C250.975016,41.6736226 251.053197,41.7121781 251.184388,41.7015941 C251.315579,41.6910177 251.445424,41.791196 251.472907,41.9242272 C251.536737,42.2330657 250.708748,42.7655008 250.281672,42.6902406 C250.110832,42.6601334 249.948094,42.7044272 249.920052,42.7886316 C249.853936,42.9871907 248.217363,43.0433219 247.56278,42.8694851 C247.284802,42.7956664 245.849194,42.7181485 244.372565,42.6972271 C241.876126,42.6618546 241.139986,42.7335123 242.073383,42.9210348 C242.285498,42.963648 242.742978,43.0628094 243.090043,43.1413976 C243.437109,43.2199833 243.989254,43.2870315 244.317041,43.2903926 C244.644828,43.293774 244.913027,43.3596705 244.913027,43.4368681 C244.913027,43.5140681 245.011833,43.5772316 245.132584,43.5772316 C245.253336,43.5772316 245.481707,43.6466265 245.64,43.7314385 C245.924759,43.88397 245.924251,43.8874505 245.595728,44.0513974 C245.020469,44.3384754 245.198726,44.6092972 246.165501,44.9169788 C246.661537,45.0748468 247.096944,45.2959189 247.133063,45.4082423 C247.169182,45.5205682 247.254526,45.6491019 247.322699,45.6938736 C247.537177,45.8347431 247.280434,46.2678008 247.037686,46.1745658 C246.915029,46.12745 246.853358,46.1276457 246.900678,46.1750743 C246.947998,46.2224341 246.827653,46.4203933 246.633216,46.6149863 C246.377514,46.8709528 246.113812,46.9752168 245.679649,46.9920373 C245.349551,47.0048256 245.104974,47.0565915 245.136166,47.1070785 C245.167331,47.157563 244.588923,47.1679157 243.850799,47.1300873 C242.777699,47.0750926 242.461596,47.1039539 242.273535,47.274089 C242.012372,47.5103545 240.635209,47.6077514 239.916842,47.4407638 C239.642539,47.3770029 239.442354,47.3966862 239.38271,47.4932823 C239.330236,47.5782595 239.138433,47.6477816 238.956478,47.6477816 C238.534602,47.6477816 238.182027,47.7824221 238.182027,47.943524 C238.182027,48.0124613 238.273543,48.0688671 238.385402,48.0688671 C238.497258,48.0688671 238.642328,48.1646368 238.707763,48.2816891 C238.781594,48.4137389 239.329764,48.5924648 240.152076,48.7526082 C241.77224,49.068123 242.964923,49.5505084 242.852147,49.8446618 C242.80884,49.9576335 242.683592,50.0155749 242.573864,49.9734218 C242.464111,49.9312688 242.409577,49.9538962 242.452656,50.0236496 C242.495759,50.0934283 242.365584,50.3473076 242.163375,50.5878291 C241.892763,50.9097329 241.721364,51.0015035 241.513872,50.935579 C241.357636,50.8859513 241.267136,50.9030159 241.310875,50.9738523 C241.354283,51.0441574 241.170334,51.1079056 240.902085,51.1155176 C240.633845,51.1231194 239.971449,51.2380029 239.430086,51.3707926 L238.445813,51.612232 L238.759059,51.9459707 C238.931327,52.1295296 239.130633,52.2797094 239.201946,52.2797094 C239.273246,52.2797094 239.548145,52.382575 239.812849,52.5082968 C240.274326,52.7274926 240.285327,52.7502522 240.080987,53.0624237 C239.946707,53.2675499 239.920029,53.4202161 240.008843,53.4751625 C240.086381,53.5231249 240.109338,53.627905 240.059879,53.7080085 C240.00186,53.8019757 239.926405,53.7860832 239.84724,53.663219 C239.767629,53.5396531 239.687609,53.5230741 239.619372,53.6160015 C239.561526,53.6947727 239.324889,53.8506017 239.093513,53.9622946 L238.672826,54.165369 L239.116643,54.2130747 C239.597185,54.2647261 239.854086,54.6249109 239.505791,54.7586896 C239.38808,54.8039037 239.256876,54.805991 239.214262,54.7633168 C239.171636,54.7206527 238.926714,54.8038401 238.669986,54.9481724 C238.413256,55.0925071 237.963386,55.2556328 237.670283,55.3106707 C237.377151,55.3657112 237.052372,55.4957907 236.948539,55.5997419 C236.702527,55.8459635 236.606246,55.840538 235.303269,55.5069747 C234.133902,55.207617 233.804286,55.2355224 233.3245,55.6744759 C233.053856,55.9220831 232.944653,55.934279 232.211973,55.7987079 C231.250877,55.6208719 229.440236,55.5980919 229.543385,55.7651329 C229.583035,55.8293489 230.075805,55.9604581 230.638438,56.0564846 C232.071864,56.3011401 232.233182,56.3536941 231.997797,56.4993102 C231.589772,56.75172 233.416824,57.3475652 235.202414,57.5444133 C235.684592,57.5975699 236.109681,57.6905837 236.14705,57.7511132 C236.184431,57.8116453 236.082658,58.029575 235.920906,58.2354054 C235.649245,58.581101 235.644036,58.6287024 235.852704,58.8594916 C235.976941,58.9969085 236.078602,59.1438848 236.078602,59.186109 C236.078602,59.3595747 233.70405,59.1099641 232.923447,58.8544424 C231.80096,58.4870067 229.528069,58.218834 229.318047,58.4290475 C229.206985,58.5402344 229.205992,58.6357144 229.314567,58.7666964 C229.461201,58.9435485 229.68608,59.0191977 231.55618,59.5207834 C232.139387,59.6772072 232.432602,59.8265836 232.432602,59.9672598 C232.432602,60.1450475 232.267144,60.1636579 231.392157,60.0842943 C230.725557,60.0238334 230.319492,60.0420929 230.262045,60.1351144 C230.212744,60.2149687 230.24965,60.2803085 230.34426,60.2803085 C230.438801,60.2803085 230.483487,60.3130012 230.443564,60.3529576 C230.349556,60.4470596 228.363555,60.0298843 228.166085,59.8745587 C228.01082,59.7524293 225.963095,59.4367315 225.526345,59.4675912 C225.391372,59.4771252 225.28094,59.5639762 225.28094,59.6605952 C225.28094,59.7572141 225.248299,59.9214025 225.20841,60.025458 C225.139493,60.2052211 226.852019,60.5686526 229.803047,61.000528 C230.246381,61.0654076 230.837797,61.2141331 231.117309,61.3310277 C231.396808,61.4479198 231.822868,61.5439107 232.064104,61.5443429 C232.69919,61.5456141 233.611348,61.8234683 233.463982,61.970976 C233.395732,62.0392878 232.541769,62.1131827 231.566261,62.1351847 C230.590757,62.1571765 229.803108,62.1859056 229.81592,62.1990041 C229.828696,62.2120975 230.151042,62.3454236 230.532154,62.4952703 C231.195866,62.7562175 231.211728,62.7748736 230.908442,62.9373434 C230.670912,63.064583 230.417099,63.0694695 229.892678,62.956869 C229.03921,62.7736635 228.926882,62.7712355 228.926882,62.9359959 C228.926882,63.0070611 229.115471,63.1066674 229.345959,63.15734 C230.112533,63.3258658 229.946516,63.5085959 229.026833,63.5085959 C228.491571,63.5085959 227.95031,63.5976283 227.687379,63.7289155 C227.421337,63.8617611 227.122948,63.9100947 226.935821,63.8506483 C226.535784,63.7235637 219.95184,63.6750953 220.028832,63.7998053 C220.191949,64.0639915 218.352359,64.0626364 216.782682,63.7972629 C213.603872,63.2601446 210.899293,62.9548351 209.15463,62.9361586 C208.190545,62.9258364 206.739187,62.8306031 205.929364,62.7245163 C205.119541,62.618432 203.676836,62.4665157 202.723358,62.3869207 C201.769865,62.3073283 200.949524,62.2179145 200.900375,62.1882218 C200.851223,62.158529 200.337742,62.0939139 199.759297,62.0446319 C199.180851,61.9953474 198.486717,61.9283094 198.216781,61.8956497 C197.654854,61.8276683 195.096363,61.6848768 193.238653,61.6178209 C191.894835,61.5693119 189.852899,61.4402087 188.470882,61.3163758 C188.008125,61.2749092 186.209685,61.2140467 184.47435,61.1811225 C182.739027,61.1481959 180.688175,61.0694882 179.916924,61.0062179 C179.145659,60.9429426 177.012617,60.8974565 175.176822,60.9051396 C172.400569,60.916733 171.816644,60.953908 171.706164,61.1259753 C171.593439,61.3015002 171.554208,61.3031706 171.447264,61.1370093 C171.363312,61.006551 171.182883,60.9688649 170.906808,61.0241342 C170.67832,61.0698746 170.423512,61.0381683 170.338892,60.9534681 C170.254467,60.8689688 169.977077,60.7865162 169.72247,60.7702295 C169.46785,60.7539327 169.133322,60.7032194 168.979073,60.6575019 C168.138716,60.4084227 167.263135,60.3359947 166.910387,60.4863779 C166.627231,60.6070988 165.920445,60.4644878 166.018101,60.30633 C166.054067,60.2480657 165.37829,60.1834175 164.516376,60.1626689 C162.195363,60.1067996 161.954672,60.0812688 161.692003,59.8630544 C161.47847,59.6856734 161.457165,59.693832 161.499418,59.936779 C161.531628,60.1219473 161.479174,60.1938896 161.336601,60.1600884 C161.220912,60.1326635 160.984275,60.1089785 160.810743,60.107453 C160.637207,60.1059276 160.495226,60.0561728 160.495226,59.9968839 C160.495226,59.9375925 160.393553,59.8500296 160.269281,59.802296 C160.105199,59.7392724 160.066355,59.7755957 160.127439,59.9349306 C160.18541,60.0861223 160.157559,60.1200023 160.037874,60.0438879 C159.942352,59.9831321 159.264723,59.9135897 158.532027,59.8893504 C156.991136,59.8383702 157.220186,59.8390337 149.978072,59.8645874 C146.931599,59.8753418 144.048887,59.8385253 143.572024,59.7827704 C143.095178,59.727018 142.598923,59.7221569 142.469238,59.7719397 C142.230567,59.8636137 137.649631,60.044615 136.242209,60.0179833 C135.141539,59.997161 133.893251,60.6448458 134.587582,60.8765071 C134.691085,60.911038 134.619495,61.010362 134.412294,61.1197616 C134.219691,61.2214501 134.027073,61.3579695 133.984243,61.4231313 C133.829489,61.6586443 132.638752,61.7900459 132.300643,61.6089251 C132.087567,61.4947839 131.52295,61.4537902 130.635063,61.4879957 C129.896279,61.5164579 127.469672,61.5730721 125.242602,61.6138014 C123.015531,61.6545307 121.04014,61.7263536 120.852845,61.7734033 C120.665548,61.8204555 119.869489,61.8686214 119.083821,61.8804359 C118.298149,61.8922581 117.529126,61.9729107 117.374871,62.059683 C117.098875,62.2149399 115.798403,62.4697929 115.580686,62.4112846 C115.312386,62.339182 114.814216,62.3573068 114.359955,62.4557004 C114.090011,62.5141705 113.742948,62.5514244 113.588694,62.5384912 C113.434445,62.5255503 113.182032,62.5038306 113.027781,62.4902109 C112.873529,62.4766091 112.147846,62.5396225 111.41515,62.6302872 C110.682454,62.7209493 109.810167,62.7938145 109.476734,62.7922103 C109.1433,62.7906848 108.796232,62.8490559 108.705476,62.9221017 C108.614716,62.9951449 108.335375,63.0988037 108.084715,63.152451 C107.71169,63.2322901 107.628973,63.2068813 107.628973,63.0124587 C107.628973,62.802029 107.512966,62.7862585 106.612312,62.8742638 C106.053149,62.9289026 104.586007,62.9881609 103.351994,63.0059526 C102.117981,63.0237495 100.76843,63.1124997 100.352991,63.203177 C99.9375557,63.2938569 99.566985,63.3680493 99.5295073,63.3680493 C99.4920271,63.3680493 99.5398959,63.4627945 99.6359308,63.5785933 C99.7319453,63.6943922 100.023631,63.7891323 100.284129,63.7891323 C100.544626,63.7891323 100.75776,63.8155504 100.75776,63.8478338 C100.75776,63.8801198 100.796063,64.0064467 100.842878,64.1285583 C100.959614,64.4330594 100.564781,64.4180897 100.253186,64.1061852 C100.076654,63.9294856 99.9928922,63.9102905 99.9507358,64.0368793 C99.9186683,64.1331677 99.8347213,64.1762513 99.764183,64.1326135 C99.6936599,64.0890138 99.635946,64.1044106 99.635946,64.1668647 C99.635946,64.2293214 99.4939625,64.2881628 99.3204297,64.2976281 C99.1468969,64.3070859 98.1845773,64.3863249 97.1819403,64.4736972 C96.1793058,64.5610694 94.1600109,64.6578536 92.6946189,64.6887768 C91.2292294,64.719695 89.8725138,64.7796245 89.6796999,64.821953 C89.0263967,64.9653725 85.4344557,65.2979442 83.5096311,65.3932335 C79.9430038,65.5697983 77.2389909,66.0803916 76.6814203,66.6825852 C76.5070112,66.8709544 76.1997093,67.0230511 75.979029,67.0302309 C74.1643819,67.0892553 71.6444175,67.2784177 70.5384685,67.4386222 C70.0757135,67.5056577 69.2639168,67.5992334 68.7344767,67.6465729 C68.2050366,67.6939125 67.4549644,67.7927992 67.06765,67.866323 C66.680333,67.9398442 66.3404988,68 66.3124623,68 C66.2844283,68 66.2614896,67.8383642 66.2614896,67.6408118 L66.2615302,67.6410407 Z M66.2615302,66.3639459 C66.2615302,66.2104025 66.1994171,66.1989261 65.9862933,66.3130927 C65.8218461,66.401187 65.7437715,66.545865 65.7923262,66.6725173 C65.8549499,66.8358642 65.9180968,66.8475338 66.0675631,66.7233705 C66.1742431,66.6347499 66.2615302,66.4730099 66.2615302,66.3639459 Z M89.890083,64.2763126 C90.4386951,64.0793501 90.4248546,64.0764721 89.259053,64.1448958 C86.5894369,64.3015841 85.7533324,64.3809656 85.7533324,64.4777447 C85.7533324,64.6608613 89.3000029,64.4881431 89.890083,64.2763126 Z M24.7538034,62.5812951 C24.7538034,62.550954 24.6591478,62.5261326 24.5434584,62.5261326 C24.427769,62.5261326 24.3331159,62.5873129 24.3331159,62.6620876 C24.3331159,62.7368622 24.427769,62.7616862 24.5434584,62.7172501 C24.6591478,62.672814 24.7538034,62.6116336 24.7538034,62.5812951 Z M34.920392,62.105047 C34.9693404,62.0257698 34.8544917,61.9646861 34.6564835,61.9646861 C34.4636695,61.9646861 34.2669135,62.027847 34.2192453,62.105047 C34.170297,62.1843243 34.2851456,62.2454106 34.4831539,62.2454106 C34.6759678,62.2454106 34.8727238,62.1822471 34.920392,62.105047 Z M28.2595215,61.3868767 C28.2595215,61.2420487 28.0916174,61.2284595 27.7801905,61.3480745 C27.4283142,61.4832312 27.5227564,61.651851 27.9089482,61.5779535 C28.1017647,61.5410607 28.2595215,61.4550766 28.2595215,61.3868767 Z M107.606009,61.3640205 C108.084504,61.2306079 108.150206,61.1793581 107.914451,61.1234278 C107.540271,61.0346598 103.078713,61.2222535 100.687699,61.4272958 C100.03797,61.4830126 105.055701,61.6190565 106.08651,61.5736746 C106.587829,61.5516066 107.271602,61.457258 107.606009,61.3640205 Z M112.466918,60.9320408 C112.621173,60.8955141 112.337208,60.8707714 111.835891,60.8770638 C110.63934,60.8920894 110.165691,61.0210249 110.924402,61.1252151 C111.232905,61.1675792 111.643077,61.15639 111.835891,61.1003504 C112.028705,61.0443107 112.312669,60.96857 112.466918,60.9320433 L112.466918,60.9320408 Z M22.9773529,60.9732785 C23.2660924,60.9648378 23.2642128,60.9575156 22.9399793,60.8278505 C22.5576534,60.6749606 22.2296836,60.7511157 22.2296836,60.9927889 C22.2296836,61.0808247 22.3292846,61.1143158 22.4514967,61.0673754 C22.5734903,61.0205164 22.8101269,60.9781752 22.9773529,60.9732785 Z M114.5735,60.8152733 C114.611003,60.7777296 114.3614,60.7364054 114.01882,60.7234341 C113.676243,60.7104678 113.352347,60.7704685 113.299055,60.856778 C113.230953,60.9670725 113.395776,60.9943627 113.853733,60.9486147 C114.212096,60.9128202 114.535992,60.8528169 114.5735,60.8152733 Z M224.229274,59.1574765 C224.282939,59.0705594 224.059175,59.023441 223.641576,59.033725 C223.0429,59.048471 223.014427,59.062355 223.387899,59.1574765 C224.001504,59.3137606 224.132781,59.3137606 224.229274,59.1574765 Z M8.09286803,57.096536 C7.99163887,57.0559897 7.87069424,57.0609754 7.82409794,57.1076208 C7.7774991,57.1542638 7.86032088,57.187437 8.00814633,57.1813429 C8.17150643,57.1746055 8.20473217,57.1413484 8.09286803,57.0965436 L8.09286803,57.096536 Z M9.74931884,56.9116931 C10.0311445,56.8213539 10.0448936,56.7985079 9.81943554,56.79519 C9.66518134,56.7929019 9.41277139,56.8453491 9.25851973,56.9116931 C8.90118492,57.0653941 9.26984813,57.0653941 9.74931884,56.9116931 Z M11.6309406,56.9668607 C11.7529394,56.9199991 11.8527538,56.7681033 11.8527538,56.6293109 C11.8527538,56.4143101 11.7645523,56.3879962 11.2567809,56.4515181 C10.612421,56.5321301 10.1919418,56.7713321 10.6946001,56.7713321 C10.8597255,56.7713321 11.0338273,56.8344956 11.0814955,56.9116931 C11.1812489,57.0732552 11.3181498,57.087002 11.6309406,56.9668607 Z M239.444097,54.5255487 C239.444097,54.4483512 239.333665,54.3861564 239.198702,54.3873386 C238.988992,54.3891183 238.983882,54.4092541 239.16364,54.5255487 C239.428283,54.6967363 239.444097,54.6967363 239.444097,54.5255487 Z M15.1043055,48.8152073 C15.0030789,48.7746636 14.8821292,48.7796492 14.8355354,48.8262921 C14.7889391,48.8729351 14.8717609,48.9061058 15.0195863,48.9000142 C15.1829439,48.8932514 15.2161722,48.8600171 15.1043055,48.8152123 L15.1043055,48.8152073 Z M13.9561849,48.4056922 C13.9561849,48.1769192 13.5661755,48.1511926 13.053827,48.346172 C12.496057,48.5584347 12.6284291,48.7078009 13.3251549,48.6523358 C13.7484916,48.6186363 13.9561849,48.5374548 13.9561849,48.4056922 Z M16.5608761,48.5069485 C16.4208535,48.2801713 15.9193889,48.2223367 15.9193889,48.4329671 C15.9193889,48.5511685 16.0633612,48.6303669 16.2782351,48.6303669 C16.4756007,48.6303669 16.6027912,48.5748281 16.5608761,48.5069485 Z M15.4987015,48.349645 C15.6551604,48.2484395 15.5743376,48.2130315 15.1831852,48.2114323 C14.8939656,48.2101611 14.657329,48.2724474 14.657329,48.349645 C14.657329,48.5284242 15.2223241,48.5284242 15.4987015,48.349645 Z M249.260109,31.9273536 C249.260109,31.8501561 249.197016,31.7869926 249.119876,31.7869926 C249.042762,31.7869926 248.979668,31.8501561 248.979668,31.9273536 C248.979668,32.0045511 249.042762,32.0677146 249.119876,32.0677146 C249.197016,32.0677146 249.260109,32.0045511 249.260109,31.9273536 Z M250.27677,29.3078878 C250.180377,29.2689509 250.022617,29.2689509 249.926224,29.3078878 C249.829806,29.3468273 249.908698,29.3786861 250.101484,29.3786861 C250.294321,29.3786861 250.373188,29.3468273 250.27677,29.3078878 Z M248.173345,27.6174517 C247.999812,27.5839962 247.715866,27.5839962 247.542333,27.6174517 C247.3688,27.6509071 247.510761,27.6782812 247.857826,27.6782812 C248.204892,27.6782812 248.346878,27.6509071 248.173345,27.6174517 Z M241.68776,26.484356 C241.68776,26.4242638 241.167167,26.300192 240.530876,26.20864 C239.894586,26.1170907 239.222131,25.9984011 239.036541,25.9448886 C238.826991,25.8844684 238.731594,25.9002237 238.78485,25.986462 C238.832015,26.0628434 239.425578,26.2056934 240.103887,26.3039064 C240.782209,26.4021169 241.400283,26.5024961 241.477423,26.5269642 C241.554537,26.5514475 241.633429,26.5764419 241.652708,26.582536 C241.672012,26.5886123 241.68776,26.5444508 241.68776,26.484356 Z M37.1640527,25.1900034 C37.4144764,25.0822894 37.4041005,25.0683138 37.0671568,25.0595095 C36.8596109,25.0540687 36.6508025,25.1128033 36.6031369,25.1900034 C36.49967,25.3575732 36.774465,25.3575732 37.1640527,25.1900034 Z M240.706159,24.367653 C240.706159,24.3013522 240.072869,24.1750278 239.298852,24.0869284 C237.555429,23.8884939 237.242356,23.8844896 237.420603,24.0629027 C237.495414,24.1377867 238.249489,24.2552813 239.096333,24.3240101 C239.943179,24.3927338 240.651824,24.4577939 240.67111,24.4685838 C240.690388,24.479389 240.706159,24.4339588 240.706159,24.3676606 L240.706159,24.367653 Z M29.296794,22.6868907 C29.3365171,22.6225577 29.2771598,22.5699223 29.164841,22.5699223 C29.0525451,22.5699223 28.9606657,22.6225577 28.9606657,22.6868907 C28.9606657,22.7512236 29.0200458,22.803859 29.0926187,22.803859 C29.1651915,22.803859 29.257071,22.7512236 29.296794,22.6868907 Z M48.058077,22.4272528 C47.9568478,22.3867066 47.8359006,22.3916897 47.7893043,22.4383123 C47.742708,22.4849552 47.8255298,22.518131 47.9733527,22.5120344 C48.1367154,22.5052716 48.1699411,22.4720398 48.058077,22.427235 L48.058077,22.4272528 Z M26.29632,22.2424125 C26.29632,22.1652124 26.1858884,22.1030176 26.0509204,22.1041973 C25.8411977,22.105977 25.8361,22.1261128 26.0158608,22.2424125 C26.2805009,22.4135976 26.29632,22.4135976 26.29632,22.2424125 Z M26.8572333,22.0235853 C26.8572333,21.9895426 26.7941321,21.9616905 26.717005,21.9616905 C26.6398804,21.9616905 26.5767766,22.0285786 26.5767766,22.1103321 C26.5767766,22.1920907 26.6398804,22.2199428 26.717005,22.1722295 C26.7941321,22.1245213 26.8572333,22.0576281 26.8572333,22.0235853 Z M34.8502753,21.0462983 C35.0430893,20.992346 35.6425699,20.8954906 36.182452,20.8310636 C36.7223289,20.766634 37.3849133,20.6471487 37.6548518,20.5655503 C37.9247903,20.4839518 38.1456535,20.4224664 38.1456535,20.4289215 C38.1456535,20.4827238 39.1061799,20.1823771 39.5829963,19.9794806 C40.3064314,19.6716363 40.352121,19.4351877 39.6881701,19.4351877 C39.3453894,19.4351877 39.1973684,19.3716886 39.1973684,19.2246437 C39.1973684,19.0087886 39.8249795,18.9234528 40.8667681,18.9976656 C41.3206229,19.0299922 42.6155479,18.7880775 42.9120193,18.6155831 C43.1334616,18.4867519 42.4257947,18.3414815 41.5026774,18.3262856 C40.9021326,18.3163448 40.3904216,18.4152214 39.7582842,18.6631921 C39.2662811,18.8561935 38.7337168,19.0150683 38.5748093,19.016248 C38.3446777,19.0180277 38.3273244,19.044639 38.4895288,19.1473419 C38.6015352,19.218275 38.7435161,19.2451507 38.8050425,19.2070909 C38.8665715,19.1690286 38.9169118,19.1976586 38.9169118,19.2706002 C38.9169118,19.3962813 38.6099629,19.4850163 37.538911,19.6690049 C37.2823278,19.7130749 37.0383227,19.8380111 36.9966743,19.9466455 C36.9347618,20.1081414 36.8808021,20.111505 36.7007339,19.9651287 C36.5162943,19.8151803 36.4939296,19.8220321 36.5630989,20.0072487 C36.6235153,20.1690549 36.5646229,20.222125 36.3439528,20.2049816 C36.1780019,20.1920916 35.8328337,20.2388464 35.5769109,20.3088743 C35.2542369,20.3971771 35.050059,20.3850727 34.9108264,20.2694111 C34.7979056,20.1756092 34.710047,20.1632201 34.710047,20.2411066 C34.710047,20.3959465 33.641596,20.8388077 33.2680154,20.8388077 C33.1356204,20.8388077 33.0273021,20.9251579 33.0273021,21.0307032 C33.0273021,21.1735761 33.2153434,21.2126071 33.7635033,21.1834966 C34.1684149,21.1619878 34.6574614,21.100271 34.8502753,21.0463085 L34.8502753,21.0462983 Z M40.6188286,15.9559295 C40.5176604,15.9221765 40.3682169,15.9612685 40.2867287,16.042867 C40.1826699,16.147019 40.2374196,16.1652811 40.4706704,16.1042279 C40.6602865,16.0545976 40.7238525,15.9909765 40.6188286,15.9559295 Z M209.995772,15.3997915 C209.995772,15.3418934 209.804057,15.281102 209.57005,15.2646908 C209.326543,15.2476058 209.180282,15.2926216 209.228031,15.3699615 C209.325798,15.5282897 209.996183,15.5543468 209.995772,15.3997915 Z M41.0203441,14.5155489 L41.3709175,14.5047436 L41.0438188,14.373515 C40.6743047,14.2252547 40.0387408,14.3394646 40.0387408,14.5541146 C40.0387408,14.6323748 40.1797743,14.6577988 40.3542571,14.6109957 C40.5277899,14.5644443 40.8275277,14.5215032 41.0203441,14.5155438 L41.0203441,14.5155489 Z M208.874217,14.545928 C208.874217,14.4815976 208.779561,14.4289622 208.663885,14.4289622 C208.548195,14.4289622 208.453542,14.4815976 208.453542,14.545928 C208.453542,14.6102559 208.548195,14.6628913 208.663885,14.6628913 C208.779561,14.6628913 208.874217,14.6102559 208.874217,14.545928 Z M209.461429,14.5670045 C209.360203,14.5264583 209.239255,14.531449 209.192659,14.578064 C209.14605,14.6247171 209.228887,14.6578878 209.37671,14.6517911 C209.540073,14.6450792 209.573286,14.6117941 209.461429,14.5669918 L209.461429,14.5670045 Z M43.4305272,14.2862851 C43.3292981,14.2457262 43.2083509,14.2507296 43.1617521,14.2973446 C43.1151583,14.343985 43.1979801,14.3771684 43.345803,14.371059 C43.5091631,14.3643471 43.5423914,14.3310746 43.4305272,14.2862724 L43.4305272,14.2862851 Z M27.6986083,14.1014397 C27.6986083,14.0242473 27.6355045,13.9610838 27.5583774,13.9610838 C27.4812528,13.9610838 27.4181491,14.0242473 27.4181491,14.1014397 C27.4181491,14.1786423 27.4812528,14.2418032 27.5583774,14.2418032 C27.6355045,14.2418032 27.6986083,14.1786423 27.6986083,14.1014397 Z M31.3445572,13.7333608 C31.3445572,13.5761004 31.0812049,13.7139877 31.0057771,13.9107595 C30.9319241,14.1033872 30.9524422,14.1120771 31.1310042,13.9637406 C31.2484563,13.8661784 31.3445572,13.7624967 31.3445572,13.7333608 Z M32.7468429,13.7505474 C32.7468429,13.6347486 32.7220271,13.5400034 32.6917326,13.5400034 C32.6614202,13.5400034 32.6003002,13.6347486 32.5559035,13.7505474 C32.5115119,13.8663462 32.5362947,13.9610889 32.6110139,13.9610889 C32.6857229,13.9610889 32.7468429,13.8663462 32.7468429,13.7505474 Z M216.33264,8.95255492 C216.231411,8.91199851 216.110463,8.91700196 216.063867,8.96361438 C216.017271,9.01025476 216.100095,9.0434382 216.247918,9.03732881 C216.411281,9.03061687 216.444509,8.99734444 216.33264,8.95254221 L216.33264,8.95255492 Z M87.219748,6.11051444 C87.2641193,6.03864834 87.2429128,5.94427688 87.1726031,5.90079162 C87.102301,5.8572911 87.0085978,5.91609688 86.9643739,6.03144825 C86.8771935,6.25885095 87.0878814,6.32408647 87.219748,6.11051444 Z M20.6593286,66.3509796 C20.5786252,66.2544827 20.5676498,66.1736089 20.6349446,66.1712622 C20.7022317,66.1689741 20.639288,66.0983715 20.4950617,66.0145027 C20.1250879,65.7993493 20.4528545,65.6149158 21.1779712,65.6302236 C21.5566852,65.6382067 21.6477873,65.6717182 21.4584303,65.733346 C21.1912427,65.8203064 20.9920711,66.1776411 21.2130283,66.1736139 C21.6247673,66.1660884 21.92212,65.9826515 21.8579647,65.775705 C21.7953283,65.57365 21.8120542,65.5754272 21.9882997,65.7895357 C22.227804,66.0804984 23.2949037,66.1340363 23.3871438,65.8597187 C23.4339941,65.7203797 23.4910094,65.7213255 23.6641333,65.8643459 C23.9371096,66.0898087 24.0981964,66.6376406 23.8663401,66.5520252 C23.776005,66.5186689 23.7225355,66.4062972 23.7475215,66.3023155 C23.7792943,66.1701003 23.7149307,66.1839336 23.5334427,66.3483355 C23.3262015,66.5360589 23.0254071,66.5776755 22.0399989,66.5549363 C21.2563911,66.5368598 20.7525136,66.4624335 20.6593337,66.3510127 L20.6593286,66.3509796 Z M18.7343591,66.0415997 C18.5475599,65.9260424 18.6373921,65.6140844 18.8574653,65.6140844 C19.0174269,65.6140844 19.1578609,66.0104273 19.0266598,66.0915909 C18.9684989,66.127571 18.836965,66.1050657 18.7343591,66.0415997 Z M21.7013102,64.9122769 C21.5462102,64.6636833 21.5624129,64.6291066 21.842867,64.6101734 C22.0170525,64.5984275 22.2542225,64.5784772 22.3699119,64.5658669 C22.7439802,64.5250868 22.8143636,64.6533459 22.5676559,64.9262119 C22.2559954,65.2709159 21.9217213,65.2655413 21.7013102,64.9122795 L21.7013102,64.9122769 Z M106.647425,63.8678502 C106.647425,63.8338048 106.710527,63.7669168 106.787654,63.7192035 C106.864781,63.6714927 106.927885,63.6993473 106.927885,63.7811008 C106.927885,63.8628543 106.864781,63.9297475 106.787654,63.9297475 C106.710527,63.9297475 106.647425,63.9018929 106.647425,63.8678502 Z M108.292776,63.771966 C108.387897,63.6760436 108.501049,63.6329169 108.544224,63.6761326 C108.587399,63.7193484 108.50957,63.7978324 108.371275,63.8505415 C108.171423,63.9267119 108.155314,63.9105905 108.292776,63.771966 Z M33.0273021,63.3854851 C33.0273021,63.3177402 33.1246298,63.1814573 33.2435856,63.0826391 C33.4117362,62.942957 33.4973037,62.9404349 33.6280451,63.0713 C33.7587865,63.2021677 33.7496629,63.2690914 33.5870444,63.3720002 C33.3226076,63.5393386 33.0273021,63.5464548 33.0273021,63.3854749 L33.0273021,63.3854851 Z M191.345624,62.105047 C191.345624,62.027847 191.436546,61.9646861 191.547696,61.9646861 C191.658821,61.9646861 191.78876,62.027847 191.836423,62.105047 C191.884086,62.1822471 191.793164,62.2454106 191.634351,62.2454106 C191.475552,62.2454106 191.345624,62.1822471 191.345624,62.105047 Z M188.961732,61.9559631 C188.961732,61.7961781 189.338442,61.7799144 189.434548,61.9355476 C189.472326,61.9967203 189.381378,62.0559609 189.232476,62.0671881 C189.083561,62.0784255 188.961732,62.0283631 188.961732,61.9559631 Z M49.8960159,61.7294782 C49.769821,61.4003158 49.9621041,61.3520203 50.4467844,61.591141 C50.699616,61.7158763 50.8433723,61.8274319 50.7662452,61.8390405 C50.1752634,61.9280043 49.9618222,61.9011336 49.8960159,61.7294782 Z M171.152675,61.4032396 C171.152675,61.3260395 171.180493,61.2628786 171.214514,61.2628786 C171.248519,61.2628786 171.315357,61.3260395 171.363017,61.4032396 C171.410681,61.4804396 171.382855,61.5436031 171.301181,61.5436031 C171.21951,61.5436031 171.152675,61.4804396 171.152675,61.4032396 Z M169.130982,61.2817178 C169.070581,61.1838836 169.059034,61.0659339 169.105321,61.0196037 C169.230807,60.8939861 169.367642,61.0787374 169.299877,61.2822822 C169.252364,61.4249136 169.219336,61.4248042 169.130982,61.2815195 L169.130982,61.2817178 Z M169.645221,61.3102817 C169.358142,61.1943329 169.446534,61.0023153 169.750392,61.0818493 C169.904638,61.1222227 170.030846,61.2110542 170.030846,61.2792491 C170.030846,61.413066 169.921494,61.4218652 169.645221,61.3102817 Z M236.873238,60.607859 C236.711885,60.4463553 236.771118,60.2803491 236.990094,60.2803491 C237.105783,60.2803491 237.200436,60.3750918 237.200436,60.4908906 C237.200436,60.7100737 237.034592,60.7693626 236.873238,60.607859 Z M62.8439145,59.7480411 C62.8061422,59.6868658 62.8984382,59.6275236 63.0490119,59.6161718 C63.1995882,59.6048327 63.2861463,59.6548697 63.2413661,59.7273968 C63.1420064,59.8883182 62.9370995,59.8989607 62.8439145,59.7480411 Z M64.1079303,59.50694 C64.1520247,59.3919242 64.2917831,59.292951 64.4185012,59.2870069 C64.5452192,59.2810576 64.9328613,59.2477471 65.2799269,59.2129746 C65.7350212,59.1673792 65.8523108,59.1893557 65.7006144,59.2918145 C65.5270765,59.4090219 65.5250293,59.4342578 65.6889304,59.4360298 C65.7981885,59.437301 65.8482621,59.4775396 65.8001976,59.5256495 C65.7521358,59.5737594 65.3336733,59.6362822 64.8702833,59.6645944 C64.1683823,59.7074746 64.041141,59.6811454 64.1079303,59.50694 Z M6.88062003,59.1671554 C6.77691183,58.9991967 7.04070861,58.8327811 7.22749005,58.9483283 C7.38431472,59.0453438 7.28136091,59.2978197 7.08497319,59.2978197 C7.01695199,59.2978197 6.92499129,59.239019 6.88062003,59.1671554 Z M8.20680227,55.516341 C8.20680227,55.4436994 8.26918467,55.345672 8.34542785,55.2985104 C8.42491969,55.2493352 8.44842485,55.30568 8.40053823,55.4305882 C8.30731769,55.6737513 8.20680227,55.7182408 8.20680227,55.516341 Z M9.23514919,55.4440528 C9.23514919,55.3316481 9.28876351,55.2728525 9.35429297,55.3133886 C9.41982243,55.3539246 9.43713253,55.445891 9.39276127,55.5177571 C9.27936805,55.7014025 9.23514919,55.6807251 9.23514919,55.4440528 Z M253.607218,37.120705 C253.491521,37.0458719 253.459974,36.9846407 253.537114,36.9846407 C253.614228,36.9846407 253.771988,37.0458719 253.887659,37.120705 C254.003356,37.1955407 254.034903,37.2567694 253.957789,37.2567694 C253.880674,37.2567694 253.722915,37.1955407 253.607218,37.120705 Z M23.2112843,26.7040883 C23.2112843,26.6433147 23.3374893,26.5935955 23.4917435,26.5935955 C23.6459926,26.5935955 23.7722001,26.6528335 23.7722001,26.7252309 C23.7722001,26.7976335 23.6459926,26.8473552 23.4917435,26.8357238 C23.3374893,26.8240795 23.2112843,26.7648568 23.2112843,26.7040883 Z M29.0835991,24.642741 L28.7547733,24.3762234 L29.5939207,24.2647187 C30.0554514,24.2033934 30.7642841,24.1496292 31.1691016,24.1452435 C31.5739192,24.1408452 31.9052089,24.0943065 31.9053028,24.0417983 C31.9054375,23.9325156 32.7406936,24.1501606 32.8710591,24.2934606 C32.9184326,24.3455315 32.7625224,24.3511451 32.524598,24.3059438 C32.2582892,24.2553423 31.9348735,24.3069607 31.683223,24.4400174 C31.4583924,24.5589688 30.9431509,24.6624065 30.5382419,24.669876 C30.1333303,24.6773507 29.8020381,24.7342726 29.8020381,24.7963631 C29.8020381,24.997574 29.4208019,24.9160569 29.0835991,24.6427486 L29.0835991,24.642741 Z M27.3158988,24.6840932 C27.3624951,24.6374528 27.4834423,24.6324671 27.5846689,24.6730337 C27.6965356,24.7178385 27.6633073,24.7510982 27.4999498,24.757833 C27.3521269,24.7639094 27.2693025,24.7307539 27.3158988,24.6841135 L27.3158988,24.6840932 Z M24.7648728,22.7453507 C24.7588022,22.5973879 24.7919263,22.5144852 24.8385226,22.5611256 C24.8851214,22.6077685 24.8901024,22.7288301 24.849597,22.8301525 C24.804832,22.9421225 24.7716038,22.9088628 24.7648753,22.7453507 L24.7648728,22.7453507 Z M28.5946339,21.5656172 C28.6337981,21.5021919 28.5367066,21.3396204 28.3788761,21.204357 C28.0965094,20.9623558 28.1058134,20.9518277 28.9595658,20.5476899 C29.9878264,20.0609443 30.0824973,20.049984 30.0824973,20.4176892 C30.0824973,20.5906539 29.9882963,20.69924 29.8370977,20.7005544 C29.6382005,20.7023341 29.6292927,20.7265378 29.7900874,20.8284093 C29.8992033,20.8975423 30.1042879,20.9317809 30.245832,20.904506 C30.3873735,20.8772209 30.5031822,20.9192519 30.5031822,20.9979469 C30.5031822,21.0766267 30.2981001,21.1297603 30.0474402,21.1160288 C29.7967803,21.1022998 29.4654906,21.0984354 29.3112365,21.1074609 C29.0775895,21.1210882 29.0658877,21.1465402 29.2411248,21.2598932 C29.4208832,21.3761777 29.4157879,21.3962626 29.2060652,21.3981008 C29.0710947,21.399372 28.9606657,21.4634228 28.9606657,21.5406152 C28.9606657,21.6178153 28.8622864,21.6809762 28.7420479,21.6809762 C28.6218068,21.6809762 28.5554722,21.6290807 28.5946339,21.5656528 L28.5946339,21.5656172 Z M30.3876707,20.4329817 C30.2466956,20.3457748 30.2521896,20.2872283 30.413947,20.1528471 C30.6408553,19.9643508 30.8216754,20.1289993 30.6655136,20.3818871 C30.6098394,20.472061 30.4872768,20.4945943 30.3876707,20.4329817 Z M25.5250592,14.5225049 C25.4773935,14.4452997 25.5330602,14.3821388 25.6487394,14.3821388 C25.7644288,14.3821388 25.898081,14.4452997 25.9457467,14.5225049 C25.9934123,14.5997075 25.9377711,14.6628709 25.822069,14.6628709 C25.7063796,14.6628709 25.5727274,14.5997075 25.5250592,14.5225049 Z M28.3970854,13.8940915 C28.5990357,13.6505394 28.680209,13.6251891 28.680209,13.8056769 C28.680209,13.8746268 28.5766304,13.970811 28.4500317,14.019437 C28.2575683,14.0933625 28.2488942,14.07283 28.3970854,13.8940915 Z M226.582543,11.628968 C226.746911,11.4644313 227.644778,11.335501 227.825916,11.4504049 C227.93017,11.5165226 227.952344,11.5778606 227.875228,11.586698 C227.120469,11.6733126 226.518583,11.6929883 226.582543,11.628968 Z M225.731221,11.4558049 C225.61465,11.3817803 225.701828,11.3409875 225.976626,11.3409875 C226.21103,11.3409875 226.40282,11.3936229 226.40282,11.4579533 C226.40282,11.6073423 225.967647,11.6059542 225.731221,11.4556651 L225.731221,11.4558049 Z M222.125849,11.2766088 C221.525525,11.1421004 220.068261,11.0456187 217.345315,10.9601355 C216.412807,10.9308496 215.51494,10.8346298 215.350064,10.7463143 C215.170638,10.6501937 214.542435,10.6012931 213.785236,10.6245078 C213.089438,10.645864 212.520171,10.6489657 212.520171,10.6313469 C212.520171,10.5825098 213.336082,10.171205 213.432971,10.171205 C213.479912,10.171205 213.479318,10.2343684 213.431701,10.3115609 C213.381134,10.3934542 213.523738,10.4519269 213.774004,10.4519269 C214.009922,10.4519269 214.202964,10.3887635 214.202964,10.3115609 C214.202964,10.2343684 214.269802,10.171205 214.35147,10.171205 C214.433152,10.171205 214.452588,10.2501593 214.394668,10.3466537 C214.316807,10.4763823 214.342057,10.4850722 214.491554,10.3799617 C214.602768,10.3017777 214.819968,10.2450567 214.974217,10.253922 C215.128477,10.2627442 215.589695,10.2793588 215.999158,10.290792 C216.408621,10.3022074 216.714341,10.3589309 216.678522,10.4168316 C216.642705,10.4747298 217.001813,10.5128531 217.476552,10.5015572 C217.951288,10.4901418 218.450146,10.5398661 218.585109,10.6117704 C218.748893,10.6990536 218.830514,10.6914544 218.830514,10.588965 C218.830514,10.504486 218.9068,10.4825629 219.000018,10.5402399 C219.093259,10.5979168 219.708513,10.6623311 220.367252,10.6834 C221.026003,10.7044511 221.564971,10.7291684 221.564971,10.7383185 C221.564971,10.7474965 221.880487,10.7754121 222.266125,10.8004395 C222.651751,10.8254568 222.983043,10.859914 223.002316,10.8770218 C223.03522,10.9062061 223.179695,10.9487252 223.423004,11.0008267 C223.534586,11.0247253 222.876358,11.4323767 222.756922,11.4133595 C222.718352,11.4071561 222.4344,11.3456401 222.125892,11.2765198 L222.125849,11.2766088 Z M216.446579,10.5748394 C216.446579,10.5072954 216.324105,10.4520261 216.174398,10.4520261 C216.0247,10.4520261 215.868097,10.5072954 215.826387,10.5748394 C215.784665,10.6423961 215.907164,10.6976527 216.098556,10.6976527 C216.289975,10.6976527 216.446579,10.6423961 216.446579,10.5748394 Z M223.947405,10.1690109 C223.898962,10.0905549 223.800585,10.0626977 223.728789,10.1071135 C223.656991,10.1515319 223.598241,10.124707 223.598241,10.0475145 C223.598241,9.77575706 223.824497,9.77145023 223.992053,10.0400653 C224.085268,10.1894696 224.13318,10.3116982 224.098514,10.3116982 C224.063851,10.3116982 223.995848,10.247505 223.947405,10.1690617 L223.947405,10.1690109 Z M220.945579,9.62156286 C220.797767,9.47358737 220.647551,9.38182188 220.611783,9.41761128 C220.576027,9.45342612 220.239477,9.50387756 219.863895,9.52976177 C219.21333,9.57459959 218.406694,9.28542667 218.611236,9.08070729 C218.774946,8.91682908 219.743357,8.95518631 219.954893,9.13391216 C220.171474,9.31690924 220.566103,9.3229805 220.742862,9.14596315 C220.891678,8.99701901 221.606983,9.02967872 221.705928,9.18994418 C221.840632,9.40809761 221.64047,9.89049571 221.415243,9.89049571 C221.304763,9.89049571 221.093415,9.7694341 220.945579,9.62147133 L220.945579,9.62156286 Z M222.392907,9.72853446 C222.333189,9.63180366 222.354225,9.60443214 222.445058,9.66062942 C222.528774,9.71243342 222.636912,9.69059673 222.685342,9.61214071 C222.816012,9.40051871 222.990589,9.43936154 222.990589,9.68003304 C222.990589,9.92728428 222.538286,9.96398132 222.392907,9.72853446 Z M58.4466946,8.68289749 C58.4932909,8.63624439 58.614238,8.63125366 58.7154672,8.67183804 C58.8273313,8.71664026 58.7941056,8.74989744 58.6307455,8.75663989 C58.48292,8.76271623 58.4000983,8.7295633 58.4466946,8.68291274 L58.4466946,8.68289749 Z M86.7349332,4.69719514 C86.7349332,4.62000524 86.7627614,4.55684178 86.796772,4.55684178 C86.8307851,4.55684178 86.89761,4.62000524 86.9452782,4.69719514 C86.9929463,4.7744003 86.9651156,4.83756121 86.8834393,4.83756121 C86.8017631,4.83756121 86.7349332,4.7744003 86.7349332,4.69719514 Z M90.0048046,4.71140718 C89.7784449,4.54493571 89.8325799,4.30571592 90.0818479,4.37095144 C90.2408037,4.41257567 90.3427872,4.35531566 90.3575116,4.21621063 C90.370364,4.09476258 90.3914003,3.90065773 90.4042552,3.7848589 C90.4171076,3.66906007 90.5433151,3.56643343 90.6847144,3.55677484 C90.8261111,3.54708828 90.9891257,3.52618719 91.0469692,3.51024632 C91.1048151,3.49428003 91.3414517,3.43032588 91.5728279,3.36806752 C92.0873506,3.22965147 92.3668192,3.02288292 92.2641524,2.85660722 C92.2218868,2.7881581 92.311978,2.73215659 92.4643552,2.73215659 C92.6167298,2.73215659 92.7734071,2.8110982 92.8125257,2.90760528 C92.8619414,3.02951096 92.9190101,3.03708478 92.9994976,2.93246998 C93.2053748,2.6648363 93.6347186,2.58130056 93.8611824,2.76484426 C94.0429829,2.91216126 94.0600593,2.90848749 93.960631,2.74338638 C93.8694501,2.59199645 93.899445,2.56668429 94.0854111,2.63811564 C94.2200616,2.68984592 94.4154688,2.7321515 94.519652,2.7321515 C94.6238352,2.7321515 94.747076,2.85198513 94.7935199,2.99846059 C94.8478022,3.16964822 94.9680408,3.24117873 95.1301689,3.19874856 C95.4881007,3.10505847 95.4510725,2.75801028 95.0902351,2.82447633 C94.8051125,2.87698712 94.8048331,2.87506252 95.0785511,2.74488894 C95.2328027,2.67153553 95.5725938,2.60708053 95.8336423,2.60165504 C96.0946882,2.59618887 96.6941688,2.52983978 97.1658138,2.45411431 C98.3882548,2.25788401 101.46118,1.91400367 102.861248,1.81677455 C103.516817,1.77126553 104.337158,1.70898429 104.684224,1.67837121 C105.415424,1.61389333 106.858936,1.51125398 108.75086,1.38922371 C109.483554,1.34196298 110.493204,1.26850788 110.994521,1.22600144 C112.199383,1.12383497 114.096062,1.11621285 114.360013,1.2125267 C114.475703,1.25473314 114.838542,1.33775785 115.166326,1.39704923 C115.494113,1.45632536 115.762302,1.55130699 115.762302,1.6081119 C115.762302,1.66490664 115.606297,1.86754125 115.415627,2.05838419 C115.133398,2.34089093 114.93779,2.40282387 114.363325,2.39157628 C113.943733,2.38326262 113.676873,2.43538697 113.705003,2.51990153 C113.73102,2.59806008 114.238144,2.66721853 114.831945,2.67356437 C115.764489,2.68350516 116.3856,2.86511155 116.173637,3.06576054 C116.078819,3.15554042 114.219744,3.24424995 114.2201,3.15899046 C114.220224,3.11724166 113.794327,3.1028542 113.273554,3.12699941 C112.75278,3.15115223 111.964687,3.11355009 111.522229,3.04327807 C111.079776,2.97307724 110.687831,2.94560403 110.651243,2.98224006 C110.614656,3.01884812 110.314083,3.06213508 109.983304,3.07842425 C109.652527,3.09472106 109.20754,3.15684213 108.994439,3.2165047 C108.764017,3.28102072 108.534805,3.26503155 108.42889,3.17704152 C108.330932,3.09567954 107.640664,3.01450316 106.894953,2.99665294 C105.971836,2.97458489 105.56793,2.91599775 105.629388,2.81310924 C105.67904,2.73002351 105.612548,2.74899238 105.481639,2.85529279 C105.317898,2.98823505 105.06559,3.02006593 104.673144,2.95725078 C104.298505,2.89729075 104.133123,2.91526554 104.191377,3.00961157 C104.290674,3.17042365 104.272198,3.1735025 103.001476,3.20768002 C102.500159,3.22115476 101.948009,3.28185209 101.774476,3.34255705 C101.600943,3.403262 101.45896,3.40130181 101.45896,3.33820954 C101.45896,3.27510964 101.301203,3.22347852 101.108389,3.22347852 C100.915575,3.22347852 100.757816,3.27085111 100.757816,3.3287518 C100.757816,3.38664994 100.659439,3.43402254 100.539198,3.43402254 C100.418957,3.43402254 100.353526,3.38067784 100.393796,3.31544232 C100.491121,3.15782096 99.05057,3.38930675 98.9460058,3.54809508 C98.7545838,3.83878327 96.1302635,4.13335625 96.1302635,3.86415645 C96.1302635,3.78200124 96.0634361,3.71474197 95.9817573,3.71474197 C95.9000785,3.71474197 95.8695579,3.77354775 95.9139291,3.84541131 C96.0407793,4.05085273 95.7181485,4.17733983 95.5094671,4.00397845 C95.3694725,3.88768131 95.303684,3.89479495 95.2511314,4.03187115 C95.2057517,4.15022764 94.9749953,4.20429184 94.6037235,4.18351024 C94.2864318,4.16576426 94.0268311,4.21022581 94.0268311,4.28232582 C94.0268311,4.51444467 93.3063931,4.36201235 93.1664569,4.10029739 C93.0920425,3.9611237 92.9701911,3.88496348 92.8956751,3.93105724 C92.8211617,3.97715101 92.7924139,4.06705292 92.8317916,4.13082402 C92.8711717,4.19459512 92.811116,4.28222666 92.6983425,4.32553904 C92.5855665,4.36886413 92.4553814,4.34290365 92.4090391,4.2678392 C92.3576676,4.18463906 92.1780337,4.21322839 91.9488038,4.34106804 C91.5174584,4.58165309 90.1758482,4.83727138 90.0048021,4.71146819 L90.0048046,4.71140718 Z M87.9969956,4.07387165 C87.9969956,3.8273272 88.0811382,3.79102931 88.2013488,3.9857062 C88.2457226,4.0575723 88.2178842,4.15605229 88.13951,4.20452828 C88.0611281,4.25301954 87.9969956,4.19435867 87.9969956,4.07387165 Z M88.5254401,3.8314103 C88.6069258,3.74983984 88.7563718,3.71072243 88.8575375,3.74447537 C88.9625614,3.77951985 88.8989953,3.84314349 88.7093793,3.89277374 C88.4761285,3.95382701 88.4213814,3.93555221 88.5254401,3.8314103 Z M136.831675,3.47526286 C136.658142,3.44180738 136.516159,3.36621919 136.516159,3.30730154 C136.516159,3.13552917 137.125634,3.22890655 137.185921,3.40991547 C137.21604,3.50034112 137.219645,3.56571393 137.193897,3.55519855 C137.168192,3.54464758 137.005175,3.50872088 136.831644,3.47526286 L136.831675,3.47526286 Z M133.921927,3.15322938 C134.307431,2.98742911 134.528837,2.98742911 134.272498,3.15322938 C134.156809,3.22807518 133.9675,3.28583858 133.851813,3.28158005 C133.713114,3.27649525 133.737007,3.23277863 133.921927,3.15322938 Z M134.771377,3.16629733 C134.728159,3.0962948 134.819096,3.07208604 134.973446,3.112495 C135.30088,3.19820194 135.342277,3.29358019 135.052032,3.29358019 C134.940901,3.29358019 134.81461,3.23629985 134.771377,3.16629733 Z M116.718891,2.84865966 C116.498162,2.62659601 116.598355,2.61118905 118.331522,2.60073723 C119.347913,2.59453377 120.320159,2.56237746 120.492071,2.52912028 C120.663983,2.49586311 120.837359,2.52167104 120.877356,2.58643622 C120.917353,2.65121156 121.143177,2.69082728 121.379184,2.67446438 C122.017262,2.63025707 122.020295,2.83460526 121.38246,2.89549581 C121.080874,2.92428598 120.86409,2.89923315 120.900716,2.83998244 C121.015832,2.65354549 120.799896,2.72271665 120.580156,2.9426701 C120.341594,3.18145514 119.749235,3.22444463 119.618352,3.01247432 C119.560653,2.91902067 119.439091,2.92119442 119.256605,3.01893202 C118.946138,3.18524332 118.653858,3.07222587 118.796591,2.84106296 C118.859009,2.73997702 118.824388,2.73036674 118.693705,2.81247364 C118.585385,2.8805414 118.149688,2.96979754 117.725498,3.01082684 C117.118486,3.06952076 116.904118,3.03500509 116.718886,2.84863678 L116.718891,2.84865966 Z M127.962203,3.01283534 C127.962203,2.9356429 127.990029,2.87248198 128.024042,2.87248198 C128.05805,2.87248198 128.12488,2.9356429 128.172546,3.01283534 C128.220211,3.09003795 128.192383,3.15320141 128.110707,3.15320141 C128.029031,3.15320141 127.962203,3.09003795 127.962203,3.01283534 Z M122.35305,2.73211591 C122.226662,2.65036748 122.20937,2.59518717 122.309715,2.59389817 C122.401572,2.59262697 122.515727,2.6549133 122.563393,2.73211591 C122.670992,2.90638492 122.622445,2.90638492 122.35305,2.73211591 Z M177.124205,2.71297161 C177.19677,2.59546175 176.662504,2.45723129 176.554305,2.56554275 C176.403531,2.71644962 175.780225,2.74496267 175.780225,2.60093554 C175.780225,2.51185228 175.381241,2.49038931 174.693458,2.54249078 C173.850272,2.60637374 173.496668,2.57345216 173.115879,2.39566955 C172.845943,2.2696528 172.731432,2.19550361 172.861419,2.23089641 C172.991409,2.2662892 173.117616,2.24032872 173.141873,2.17329572 C173.16613,2.10623476 173.280644,2.03083217 173.396333,2.00573102 C173.512023,1.98066293 173.653036,1.8969594 173.709703,1.81975424 C173.76637,1.74255163 173.813696,1.81772032 173.814874,1.98688673 C173.816906,2.27756221 173.838115,2.28334618 174.202646,2.09272951 C174.548586,1.91184262 174.608266,1.91631217 174.782431,2.13614105 C174.967077,2.36921584 174.972449,2.36919042 174.892007,2.13614105 C174.826721,1.94657693 174.884819,1.8905144 175.146627,1.8905144 C175.333195,1.8905144 175.550149,2.00105046 175.628767,2.13614105 C175.708094,2.27245961 175.77359,2.30369303 175.775957,2.20632917 C175.780428,2.02252614 176.200912,1.95307023 176.200912,2.13614105 C176.200912,2.19403919 176.677957,2.23776089 177.261014,2.23330406 C177.844074,2.22882943 178.352607,2.27620711 178.391116,2.33857734 C178.429625,2.40093232 178.596226,2.45195327 178.761352,2.45195327 C179.001534,2.45195327 179.026525,2.4870486 178.886292,2.62740196 C178.710788,2.80307438 177.01783,2.88583977 177.124205,2.71354366 L177.124205,2.71297161 Z M179.426179,2.70875123 C179.426179,2.64441063 179.473507,2.58751674 179.53135,2.58230227 C179.589196,2.57709034 179.838421,2.54638828 180.085189,2.51408705 C180.640009,2.44142772 180.83753,2.68222379 180.303817,2.78060462 C179.77616,2.87786933 179.426179,2.84922916 179.426179,2.70875123 Z M169.329829,2.24086517 C169.329852,2.16367527 169.093205,2.10051181 168.803945,2.10051181 C168.514659,2.10051181 168.231624,2.16367527 168.174959,2.24086517 C168.106275,2.3344434 168.071114,2.3344434 168.069466,2.24086517 C168.066367,2.06501986 167.226267,2.02342107 167.226267,2.19912908 C167.226267,2.2698028 167.168919,2.29214798 167.098832,2.24878475 C166.965272,2.16616937 165.731784,2.03352457 164.421688,1.96089066 C163.997503,1.93737343 163.650435,1.90394846 163.650435,1.88660419 C163.650435,1.79253019 161.805363,1.79107848 161.687317,1.88507875 C161.476601,2.05285701 160.0746,2.16990924 160.0746,2.01970916 C160.0746,1.94835407 159.979944,1.88998304 159.864255,1.88998304 C159.748565,1.88998304 159.653912,1.95092444 159.653912,2.02543211 C159.653912,2.10999752 158.66621,2.13591731 157.024621,2.09445581 C155.57851,2.05793419 154.243113,2.02870926 154.057071,2.02951775 C153.871031,2.03078895 153.508189,1.97274843 153.250755,1.90160182 C152.969275,1.823817 152.782702,1.8233314 152.782702,1.90033062 C152.782702,2.02788552 152.292251,2.0072285 152.159231,1.87406251 C152.120849,1.83565443 151.48271,1.82667721 150.741139,1.85413007 C149.847376,1.88721437 149.326034,1.84853679 149.19468,1.73942448 C149.040357,1.61121109 148.996047,1.61741964 148.994378,1.76745447 C148.992854,1.88916439 148.9543,1.9061095 148.889207,1.8134618 C148.82735,1.72545906 148.02959,1.65986252 146.89309,1.64937256 C145.851893,1.63981313 142.696743,1.59574311 139.881651,1.55159937 C137.066559,1.50746834 133.453914,1.46292544 131.853552,1.4526465 C130.253192,1.44247689 128.943659,1.39443818 128.943487,1.34613507 C128.943362,1.29780653 128.596228,1.25827979 128.17219,1.25827979 C127.748155,1.25827979 127.401232,1.30565238 127.401249,1.36355053 C127.40127,1.42145122 127.334458,1.46882381 127.252781,1.46882381 C127.171105,1.46882381 127.143277,1.40566035 127.190945,1.32845774 C127.238611,1.2512653 127.179236,1.18810184 127.058992,1.18810184 C126.938751,1.1881654 126.840372,1.12500194 126.840372,1.04781204 C126.840372,0.970609429 126.773544,0.907445968 126.691866,0.907445968 C126.610189,0.907445968 126.582364,0.970609429 126.630029,1.04781204 C126.68122,1.13071217 126.526758,1.1872959 126.252677,1.18601707 C125.901489,1.18423739 125.839805,1.15078699 125.998999,1.04781204 C126.154356,0.947318475 126.160901,0.9111833 126.024044,0.909594298 C125.881336,0.907814616 125.887092,0.859043699 126.049088,0.696901946 C126.164777,0.581105658 126.390144,0.486360466 126.549907,0.486360466 C126.709666,0.486360466 126.840379,0.41893848 126.840379,0.336534113 C126.840379,0.247661873 126.961586,0.225230251 127.138397,0.281404646 C127.338946,0.345112181 127.405034,0.325250929 127.340465,0.220686977 C127.287691,0.13520376 127.281824,0.0652749648 127.327409,0.0652749648 C127.373007,0.0652749648 127.458328,0.195176505 127.517007,0.353952117 L127.623698,0.64264198 L127.993486,0.351480901 C128.246983,0.151912433 128.393925,0.109965325 128.460724,0.218154744 C128.529815,0.330053528 128.592382,0.320570365 128.675753,0.18554334 C128.771308,0.0307770981 129.733406,-0.00392161841 133.81163,0.000336906662 C136.571696,0.00331151821 139.965781,0.0461332124 141.354046,0.0957380379 C142.742311,0.145332694 145.045567,0.222535304 146.472397,0.267301937 C151.624515,0.428907243 152.951752,0.487639295 153.067189,0.559057939 C153.325198,0.718639492 154.455147,0.86019795 154.626239,0.75435517 C154.731692,0.689132362 154.854532,0.712420774 154.91748,0.809586333 C154.99873,0.934980193 155.061399,0.924192777 155.164437,0.767079897 C155.240386,0.651281066 155.303571,0.619699336 155.304848,0.696901946 C155.306372,0.785489437 156.173594,0.831000994 157.655826,0.820300019 C159.998308,0.803367615 164.000856,1.02994657 164.001153,1.1795136 C164.001242,1.22287428 164.490291,1.25123987 165.087922,1.24257537 C166.112131,1.22770231 168.471418,1.41978594 168.889736,1.55212056 C169.044033,1.60094487 169.046959,1.65342007 168.904976,1.82468396 C168.761864,1.99727753 168.765451,2.02528465 168.924254,1.97509253 C169.031572,1.94117941 169.29548,1.87471337 169.510725,1.82740433 C169.75185,1.77439523 169.870976,1.67561525 169.821019,1.57004705 C169.776419,1.47581288 169.81345,1.49758602 169.903394,1.61840101 C170.035578,1.79608193 170.21576,1.81787032 170.84549,1.73233626 C171.288326,1.67219063 171.730172,1.68337466 171.869996,1.75826877 C172.005221,1.83071709 172.293524,1.89857382 172.510701,1.90908666 C172.874427,1.92668009 172.878889,1.93323949 172.567295,1.99201476 C172.305556,2.04139585 172.273841,2.08421246 172.427074,2.18129158 C172.643866,2.31865253 172.461651,2.33585952 170.486626,2.36448697 C169.797664,2.37442777 169.329786,2.32447463 169.329836,2.24087788 L169.329829,2.24086517 Z M128.574138,0.978427318 C128.529914,0.863063238 128.437239,0.80363711 128.368197,0.846354566 C128.170204,0.968832289 128.221799,1.18815269 128.448603,1.18815269 C128.573698,1.18815269 128.622977,1.10582205 128.574138,0.978427318 Z M120.395546,1.45823216 C120.539859,1.18831286 120.531286,1.15766165 120.3328,1.23389814 C120.13481,1.3099465 120.125889,1.27920885 120.268528,1.01242942 L120.434157,0.702663031 L120.573661,1.01559725 C120.733719,1.37462269 121.023299,1.42682586 121.141704,1.11797474 C121.186096,1.0021759 121.171811,0.907433256 121.109962,0.907433256 C121.04811,0.907433256 120.997503,0.811917717 120.997503,0.695162942 C120.997503,0.522584625 121.124208,0.499715709 121.675279,0.572886069 C122.138309,0.634358831 122.35305,0.612672134 122.35305,0.504447121 C122.35305,0.416431671 122.574922,0.345994395 122.852127,0.345994395 C123.17932,0.345994395 123.318377,0.39916367 123.255891,0.50036148 C123.188124,0.610101764 123.245629,0.609171245 123.454803,0.497132628 C123.699271,0.36617599 123.735168,0.375671866 123.667066,0.55330448 C123.621986,0.670880451 123.528753,0.767087524 123.459878,0.767087524 C123.391003,0.767087524 123.334651,0.830250985 123.334651,0.907440883 C123.334651,1.20002825 123.588074,1.0309254 123.755339,0.626721453 C123.950418,0.155321795 123.95544,0.152728544 124.306978,0.341036709 C124.484306,0.436031056 124.539106,0.584352306 124.490641,0.838122265 C124.452647,1.03705767 124.476747,1.1814204 124.544194,1.15890234 C124.611641,1.13640207 124.698377,1.1796992 124.736939,1.25516026 C124.778412,1.33629851 124.445106,1.40205522 123.92103,1.41614522 C123.111024,1.43790819 123.021865,1.41106041 122.88186,1.10352117 C122.730918,0.77191809 122.212822,0.626500264 122.212822,0.91572149 C122.212822,0.997492798 122.275202,1.02578466 122.351445,0.978625625 C122.429669,0.930220814 122.455161,0.983964672 122.409954,1.10183302 C122.363144,1.22393955 122.237661,1.27540796 122.108098,1.22562771 C121.963953,1.17027197 121.920951,1.19649177 121.98521,1.30057012 C122.098016,1.48326974 121.631982,1.61817219 121.09099,1.55941726 C120.898176,1.53849328 120.625213,1.57749374 120.484403,1.64610557 C120.254993,1.75789249 120.24576,1.73838972 120.395546,1.45824233 L120.395546,1.45823216 Z M124.231695,0.930833533 C124.271418,0.86650311 124.214804,0.81386774 124.105909,0.81386774 C123.997007,0.81386774 123.940403,0.86650311 123.980126,0.930833533 C124.019849,0.995161415 124.076453,1.04779933 124.105909,1.04779933 C124.135368,1.04779933 124.191972,0.995161415 124.231695,0.930833533 Z M118.506612,1.48483587 C118.464364,1.41640963 118.555555,1.32752468 118.709255,1.28729115 C118.895392,1.238566 118.960098,1.13948855 118.903022,0.990618141 C118.855887,0.867670073 118.876664,0.767077354 118.949184,0.767077354 C119.141525,0.767077354 119.110436,1.2255794 118.904091,1.43212677 C118.694785,1.64162586 118.610332,1.6528226 118.506612,1.48483587 Z M119.366503,1.09458717 C119.405965,0.991650356 119.456302,0.907433256 119.47836,0.907433256 C119.500407,0.907433256 119.550755,0.991650356 119.590216,1.09458717 C119.62968,1.19752398 119.579345,1.28174108 119.47836,1.28174108 C119.377379,1.28174108 119.327042,1.19752398 119.366503,1.09458717 Z M119.9073,0.701358778 C120.057012,0.588018451 120.317761,0.49327326 120.486742,0.490814756 C120.821225,0.485857071 121.034346,0.698801121 120.824798,0.828440794 C120.753,0.872846405 120.670077,0.836627332 120.640521,0.747823736 C120.600138,0.626563824 120.512343,0.62632738 120.287192,0.746552535 C119.856146,0.97746629 119.585055,0.944928616 119.9073,0.700967248 L119.9073,0.701358778 Z M118.043935,0.682265332 C118.090534,0.635624948 118.211481,0.630636753 118.312708,0.671205879 C118.424572,0.716008105 118.391344,0.749267821 118.227986,0.75599502 C118.080163,0.762071363 117.997339,0.72892097 118.043935,0.682280586 L118.043935,0.682265332 Z M125.438083,0.626701114 C125.258325,0.510429396 125.26342,0.490318988 125.473143,0.48848083 C125.608111,0.487209629 125.718543,0.549495961 125.718543,0.626701114 C125.718543,0.797891279 125.702718,0.797891279 125.438083,0.626701114 Z M124.684984,0.41291807 C124.618116,0.238486341 124.654087,0.226470944 124.880325,0.347669839 C125.205384,0.521801565 125.236197,0.626701114 124.962288,0.626701114 C124.854849,0.626701114 124.730064,0.530491498 124.684984,0.41291807 Z" id="path2987"></path>
                        </g>
                    </g>
                </g>
            </g>
        </g>
    </g>
</svg>