<?xml version="1.0" encoding="iso-8859-1"?>
<!-- Generator: Adobe Illustrator 19.0.0, SVG Export Plug-In . SVG Version: 6.00 Build 0)  -->
<svg xmlns="http://www.w3.org/2000/svg" xmlns:xlink="http://www.w3.org/1999/xlink" version="1.1" id="Capa_1" x="0px" y="0px" viewBox="0 0 512 512" style="enable-background:new 0 0 512 512;" xml:space="preserve" width="512px" height="512px">
<g>
	<g>
		<path d="M303.55,349.39c0.73-2.842,2.21-5.435,4.285-7.51l75.31-75.31V27.153c0-9.054-7.34-16.394-16.394-16.394H16.394    C7.34,10.758,0,18.099,0,27.153v457.695c0,9.054,7.34,16.394,16.394,16.394h350.356c9.054,0,16.394-7.34,16.394-16.394v-77.231    l-4.786,4.786c-2.074,2.076-4.668,3.555-7.51,4.287l-63.725,16.387c-1.351,0.348-2.723,0.517-4.082,0.517    c-4.293,0-8.479-1.689-11.593-4.802c-4.1-4.1-5.729-10.061-4.285-15.675L303.55,349.39z M101.216,114.403h180.712    c9.054,0,16.394,7.34,16.394,16.394c0,9.054-7.34,16.394-16.394,16.394H101.216c-9.054,0-16.394-7.34-16.394-16.394    C84.821,121.743,92.162,114.403,101.216,114.403z M101.216,177.007h180.712c9.054,0,16.394,7.34,16.394,16.394    s-7.34,16.394-16.394,16.394H101.216c-9.054,0-16.394-7.34-16.394-16.394S92.162,177.007,101.216,177.007z M101.216,239.611    h180.712c9.054,0,16.394,7.34,16.394,16.394c0,9.054-7.34,16.394-16.394,16.394H101.216c-9.054,0-16.394-7.34-16.394-16.394    C84.821,246.951,92.162,239.611,101.216,239.611z M191.572,397.607h-90.356c-9.054,0-16.394-7.34-16.394-16.394    c0-9.054,7.34-16.394,16.394-16.394h90.356c9.054,0,16.394,7.34,16.394,16.394C207.966,390.267,200.626,397.607,191.572,397.607z     M281.928,335.003H101.216c-9.054,0-16.394-7.34-16.394-16.394s7.34-16.394,16.394-16.394h180.712    c9.054,0,16.394,7.34,16.394,16.394S290.982,335.003,281.928,335.003z" fill="#FFFFFF"/>
	</g>
</g>
<g>
	<g>
		<polygon points="487.845,208.239 334.188,361.895 325.827,394.41 358.343,386.049 512,232.393   " fill="#FFFFFF"/>
	</g>
</g>
<g>
</g>
<g>
</g>
<g>
</g>
<g>
</g>
<g>
</g>
<g>
</g>
<g>
</g>
<g>
</g>
<g>
</g>
<g>
</g>
<g>
</g>
<g>
</g>
<g>
</g>
<g>
</g>
<g>
</g>
</svg>
