<?xml version="1.0" encoding="UTF-8"?>
<svg width="22px" height="24px" viewBox="0 0 22 24" version="1.1" xmlns="http://www.w3.org/2000/svg" xmlns:xlink="http://www.w3.org/1999/xlink">
    <!-- Generator: Sketch 50.2 (55047) - http://www.bohemiancoding.com/sketch -->
    <title>flaticon1541772389-svg</title>
    <desc>Created with Sketch.</desc>
    <defs></defs>
    <g id="Page-1" stroke="none" stroke-width="1" fill="none" fill-rule="evenodd">
        <g id="Group-2" transform="translate(-1144.000000, -43.000000)" fill="#454545" fill-rule="nonzero">
            <g id="HEADER">
                <g id="contacts_header" transform="translate(1141.000000, 28.000000)">
                    <g id="flaticon1541772389-svg" transform="translate(3.000000, 15.000000)">
                        <g id="Group">
                            <path d="M4.71428571,3.2 L17.2857143,3.2 L17.2857143,6.4 L18.0714286,6.4 L18.0714286,1.6 C18.0714286,0.88 17.1651071,0 16.1071429,0 L5.89285714,0 C4.80857143,0.0013 3.92984821,0.896 3.92857143,2 L3.92857143,4.8 L4.71428571,4.8 L4.71428571,3.2 Z M5.89285714,0.8 L16.1071429,0.8 C16.7879643,0.8 17.2857143,1.36 17.2857143,1.6 L17.2857143,2.4 L4.71428571,2.4 L4.71428571,2 C4.71428571,1.33725 5.24194196,0.8 5.89285714,0.8 Z" id="Shape"></path>
                            <path d="M17.2857143,20.8 L12.1785714,20.8 L12.1785714,21.6 L17.2857143,21.6 L17.2857143,22 C17.2857143,22.66275 16.758058,23.2 16.1071429,23.2 L5.89285714,23.2 C5.24194196,23.2 4.71428571,22.66275 4.71428571,22 L4.71428571,21.6 L9.82142857,21.6 L9.82142857,20.8 L4.71428571,20.8 L4.71428571,17.6 L3.92857143,17.6 L3.92857143,22 C3.92984821,23.104 4.80857143,23.9987 5.89285714,24 L16.1071429,24 C17.1914286,23.9987 18.0701518,23.104 18.0714286,22 L18.0714286,19.2 L17.2857143,19.2 L17.2857143,20.8 Z" id="Shape"></path>
                            <polygon id="Shape" points="10.6071429 20.8 11.3928571 20.8 11.3928571 21.6 10.6071429 21.6"></polygon>
                            <polygon id="Shape" points="10.6071429 1.2 11.3928571 1.2 11.3928571 2 10.6071429 2"></polygon>
                            <path d="M21.8526786,6.488 C21.759817,6.4121 21.638375,6.3827 21.5218929,6.408 L14.5769643,7.9808 L7.62339286,4.8344 C7.60438839,4.82685 7.58479464,4.8208 7.56485714,4.8164 C7.55817857,4.8164 7.55228571,4.812 7.546,4.8108 C7.4958125,4.8004 7.44415179,4.8004 7.39396429,4.8108 C7.38885714,4.8108 7.38375,4.8108 7.37864286,4.8108 L0.307214286,6.4108 C0.128071429,6.45155 0.000540178571,6.61315 0,6.8 L0,17.2 C0,17.4209 0.175901786,17.6 0.392857143,17.6 C0.421486607,17.5999 0.450066964,17.5968 0.478107143,17.5908 L7.425,16.0192 L14.3785714,19.1656 C14.3828929,19.1656 14.388,19.1656 14.3923214,19.1688 C14.4377946,19.1882 14.4864107,19.19875 14.5357143,19.2 C14.5643437,19.1999 14.5929241,19.1968 14.6209643,19.1908 L21.6923929,17.5908 C21.8722232,17.5501 22.0001473,17.3876 22,17.2 L22,6.8 C21.9999509,6.67865 21.9457366,6.56385 21.8526786,6.488 Z M0.785714286,7.12 L7.07142857,5.698 L7.07142857,15.28 L0.785714286,16.7012 L0.785714286,7.12 Z M7.85714286,5.8148 L14.1428571,8.6588 L14.1428571,18.1844 L7.85714286,15.3404 L7.85714286,5.8148 Z M21.2142857,16.88 L14.9285714,18.3012 L14.9285714,8.72 L21.2142857,7.298 L21.2142857,16.88 Z" id="Shape"></path>
                        </g>
                        <path d="M18.0714286,15.904 L18.39475,15.4272 C18.6689643,15.0236 20.0357143,12.96 20.0357143,12 C20.0357143,10.89545 19.1562545,10 18.0714286,10 C16.9866027,10 16.1071429,10.89545 16.1071429,12 C16.1071429,12.96 17.4738929,15.0236 17.7481071,15.4272 L18.0714286,15.904 Z M18.0714286,10.8 C18.7223438,10.8 19.25,11.33725 19.25,12 C19.25,12.4368 18.63675,13.5768 18.0714286,14.4768 C17.5061071,13.5772 16.8928571,12.4368 16.8928571,12 C16.8928571,11.33725 17.4205134,10.8 18.0714286,10.8 Z" id="Shape"></path>
                    </g>
                </g>
            </g>
        </g>
    </g>
</svg>