<?xml version="1.0" encoding="iso-8859-1"?>
<!-- Generator: Adobe Illustrator 19.0.0, SVG Export Plug-In . SVG Version: 6.00 Build 0)  -->
<svg xmlns="http://www.w3.org/2000/svg" xmlns:xlink="http://www.w3.org/1999/xlink" version="1.1" id="Layer_1" x="0px" y="0px" viewBox="0 0 512 512" style="enable-background:new 0 0 512 512;" xml:space="preserve" width="512px" height="512px">
<g>
	<g>
		<path d="M194.341,191.545c-22.989,0-41.692,18.703-41.692,41.691c0,22.989,18.703,41.692,41.692,41.692    s41.692-18.703,41.692-41.692C236.033,210.248,217.33,191.545,194.341,191.545z M194.341,253.888    c-11.388,0-20.653-9.264-20.653-20.653c0-11.387,9.263-20.651,20.653-20.651c11.388,0,20.653,9.264,20.653,20.651    C214.994,244.624,205.729,253.888,194.341,253.888z" fill="#FFFFFF"/>
	</g>
</g>
<g>
	<g>
		<path d="M312.417,309.621c-22.989,0-41.692,18.703-41.692,41.692c0,22.989,18.703,41.692,41.692,41.692    s41.692-18.703,41.692-41.692C354.109,328.323,335.406,309.621,312.417,309.621z M312.417,371.965    c-11.388,0-20.653-9.264-20.653-20.653s9.264-20.653,20.653-20.653s20.653,9.264,20.653,20.653S323.805,371.965,312.417,371.965z" fill="#FFFFFF"/>
	</g>
</g>
<g>
	<g>
		<path d="M351.026,194.626c-4.106-4.106-10.766-4.109-14.876,0L155.729,375.045c-4.109,4.109-4.109,10.77,0,14.878    c2.055,2.054,4.747,3.081,7.439,3.081s5.384-1.027,7.439-3.081l180.42-180.419C355.135,205.396,355.135,198.735,351.026,194.626z" fill="#FFFFFF"/>
	</g>
</g>
<g>
	<g>
		<path d="M510.413,196.882c-7.179-41.185-38.26-73.971-78.447-83.678l-0.551-3.155c-5.83-33.456-37.799-55.936-71.255-50.101    l-253.917,44.26c-33.457,5.83-55.934,37.795-50.102,71.254l0.551,3.152c-22.756,14.97-38.792,38.252-44.65,65.025    C4.308,258.328,0,274.939,0,292.275c0,41.805,24.991,79.441,62.914,95.906v3.201c0,33.962,27.631,61.592,61.592,61.592h257.746    c33.964,0,61.593-27.631,61.593-61.592v-3.201c37.922-16.465,62.913-54.101,62.913-95.906c0-11.13-1.787-21.958-5.102-32.176    C511.171,240.39,514.204,218.634,510.413,196.882z M429.843,371.084c-4.216,1.48-7.038,5.46-7.038,9.927v10.371    c0,22.361-18.192,40.552-40.554,40.552H124.507c-22.361,0-40.552-18.191-40.552-40.552v-10.371c0-4.467-2.822-8.448-7.038-9.927    c-33.422-11.72-55.877-43.39-55.877-78.809c0-35.419,22.455-67.089,55.876-78.809c4.216-1.48,7.038-5.46,7.038-9.927v-10.371    c0-22.361,18.191-40.553,40.552-40.553h257.746c22.361,0,40.553,18.192,40.553,40.553v10.371c0,4.467,2.822,8.448,7.038,9.927    c33.421,11.719,55.875,43.39,55.875,78.809C485.717,327.693,463.265,359.363,429.843,371.084z" fill="#FFFFFF"/>
	</g>
</g>
<g>
</g>
<g>
</g>
<g>
</g>
<g>
</g>
<g>
</g>
<g>
</g>
<g>
</g>
<g>
</g>
<g>
</g>
<g>
</g>
<g>
</g>
<g>
</g>
<g>
</g>
<g>
</g>
<g>
</g>
</svg>
