<?xml version="1.0" encoding="iso-8859-1"?>
<!-- Generator: Adobe Illustrator 19.0.0, SVG Export Plug-In . SVG Version: 6.00 Build 0)  -->
<svg xmlns="http://www.w3.org/2000/svg" xmlns:xlink="http://www.w3.org/1999/xlink" version="1.1" id="Capa_1" x="0px" y="0px" viewBox="0 0 512 512" style="enable-background:new 0 0 512 512;" xml:space="preserve" width="512px" height="512px">
<g>
	<g>
		<path d="M508.137,300.456L479.57,256l28.566-44.456l-41.967-32.037l11.558-51.518l-50.442-15.691l-6.734-52.406l-52.767,2.426    l-24.211-46.923L294.867,35.78L256,0l-38.867,35.78l-48.706-20.382L144.216,62.32L91.45,59.892l-6.735,52.406l-50.442,15.691    l11.558,51.517L3.863,211.544L32.43,256L3.864,300.456l41.967,32.037L34.273,384.01l50.442,15.691l6.734,52.406l52.767-2.426    l24.211,46.923l48.706-20.383L256,512l38.867-35.78l48.706,20.382l24.211-46.922l52.766,2.427l6.735-52.406l50.442-15.691    l-11.558-51.516L508.137,300.456z M163.632,163.633c19.617-19.617,51.535-19.617,71.151,0c19.616,19.616,19.616,51.534,0,71.15    c-9.808,9.809-22.692,14.713-35.576,14.713c-12.883,0-25.767-4.904-35.575-14.713    C144.017,215.167,144.017,183.249,163.632,163.633z M189.251,343.961l-21.213-21.213l154.71-154.709l21.213,21.213    L189.251,343.961z M348.368,348.367c-9.809,9.809-22.692,14.713-35.576,14.713c-12.883,0-25.767-4.904-35.575-14.713    c-19.616-19.616-19.616-51.534,0-71.15c19.616-19.616,51.534-19.618,71.151,0C367.983,296.833,367.983,328.751,348.368,348.367z" fill="#FFFFFF"/>
	</g>
</g>
<g>
	<g>
		<path d="M327.154,298.429c-3.959-3.958-9.161-5.939-14.362-5.939c-5.202,0-10.402,1.979-14.363,5.939    c-7.919,7.92-7.919,20.805,0,28.725c7.92,7.92,20.805,7.921,28.725,0C335.073,319.235,335.073,306.348,327.154,298.429z" fill="#FFFFFF"/>
	</g>
</g>
<g>
	<g>
		<path d="M213.57,184.845c-3.96-3.96-9.161-5.939-14.363-5.939c-5.201,0-10.402,1.979-14.362,5.939    c-7.919,7.919-7.919,20.806,0,28.725c7.92,7.92,20.806,7.92,28.725,0S221.489,192.765,213.57,184.845z" fill="#FFFFFF"/>
	</g>
</g>
<g>
</g>
<g>
</g>
<g>
</g>
<g>
</g>
<g>
</g>
<g>
</g>
<g>
</g>
<g>
</g>
<g>
</g>
<g>
</g>
<g>
</g>
<g>
</g>
<g>
</g>
<g>
</g>
<g>
</g>
</svg>
