<?xml version="1.0"?>
<svg xmlns="http://www.w3.org/2000/svg" height="512px" viewBox="0 -63 512 512" width="512px"><path d="m100.816406 211.820312c-5.765625 0-10.457031 4.691407-10.457031 10.457032 0 5.761718 4.691406 10.453125 10.457031 10.453125s10.453125-4.691407 10.453125-10.453125c0-5.765625-4.6875-10.457032-10.453125-10.457032zm0 0" fill="#FFFFFF"/><path d="m152.203125 211.820312c-5.761719 0-10.453125 4.691407-10.453125 10.457032 0 5.761718 4.691406 10.453125 10.453125 10.453125 5.765625 0 10.457031-4.691407 10.457031-10.453125 0-5.765625-4.691406-10.457032-10.457031-10.457032zm0 0" fill="#FFFFFF"/><path d="m236.019531 122.964844c0-1.828125.042969-3.648438.109375-5.460938h-236.128906v268.9375h407.746094v-111.605468c-6.136719.75-12.378906 1.144531-18.710938 1.144531-84.375 0-153.015625-68.640625-153.015625-153.015625zm-96.675781 200.351562h-77.324219v-30.035156h77.324219zm-12.832031-69.769531c-6.996094 5.757813-15.949219 9.222656-25.695313 9.222656-22.328125 0-40.492187-18.164062-40.492187-40.492187s18.164062-40.496094 40.492187-40.496094c9.746094 0 18.699219 3.464844 25.695313 9.222656 6.992187-5.757812 15.945312-9.222656 25.691406-9.222656 22.328125 0 40.492187 18.167969 40.492187 40.496094s-18.164062 40.492187-40.492187 40.492187c-9.746094 0-18.695313-3.464843-25.691406-9.222656zm88.695312 69.769531h-47.222656v-30.035156h47.222656zm132.605469 0h-104.648438v-30.035156h104.648438zm0 0" fill="#FFFFFF"/><path d="m512 122.964844c0-67.804688-55.160156-122.964844-122.964844-122.964844-67.804687 0-122.96875 55.160156-122.96875 122.964844 0 67.804687 55.164063 122.96875 122.96875 122.96875 67.804688 0 122.964844-55.164063 122.964844-122.96875zm-126.898438 47.847656-47.105468-34.128906 17.621094-24.324219 23.949218 17.351563 38.683594-48.222657 23.429688 18.792969zm0 0" fill="#FFFFFF"/></svg>
