<?xml version="1.0" encoding="iso-8859-1"?>
<!-- Generator: Adobe Illustrator 19.0.0, SVG Export Plug-In . SVG Version: 6.00 Build 0)  -->
<svg xmlns="http://www.w3.org/2000/svg" xmlns:xlink="http://www.w3.org/1999/xlink" version="1.1" id="Capa_1" x="0px" y="0px" viewBox="0 0 489.174 489.174" style="enable-background:new 0 0 489.174 489.174;" xml:space="preserve" width="512px" height="512px">
<g>
	<g>
		<path d="M334.242,303.357c-0.008-0.008-0.015-0.016-0.023-0.023c-1.556-1.568-4.088-1.579-5.657-0.023    c-0.008,0.008-0.016,0.015-0.023,0.023l-95.52,95.52c-1.568,1.556-1.579,4.088-0.023,5.657c0.008,0.008,0.015,0.016,0.023,0.023    c1.556,1.568,4.088,1.579,5.657,0.023c0.008-0.008,0.016-0.015,0.023-0.023l95.52-95.52    C335.787,307.458,335.797,304.925,334.242,303.357z" fill="#FFFFFF"/>
	</g>
</g>
<g>
	<g>
		<path d="M245.058,292.254c-16.259,0-29.44,13.181-29.44,29.44s13.181,29.44,29.44,29.44c16.25-0.022,29.418-13.19,29.44-29.44    C274.498,305.434,261.318,292.254,245.058,292.254z M245.058,343.134c-11.841,0-21.44-9.599-21.44-21.44s9.599-21.44,21.44-21.44    s21.44,9.599,21.44,21.44C266.498,333.535,256.899,343.134,245.058,343.134z" fill="#FFFFFF"/>
	</g>
</g>
<g>
	<g>
		<path d="M318.538,359.414c-16.259,0-29.44,13.181-29.44,29.44s13.181,29.44,29.44,29.44s29.44-13.181,29.44-29.44    C347.956,372.604,334.788,359.436,318.538,359.414z M318.538,410.294c-11.841,0-21.44-9.599-21.44-21.44    c0-11.841,9.599-21.44,21.44-21.44c11.841,0,21.44,9.599,21.44,21.44C339.956,400.686,330.37,410.272,318.538,410.294z" fill="#FFFFFF"/>
	</g>
</g>
<g>
	<g>
		<path d="M212.258,225.974h-8.96c-2.209,0-4,1.791-4,4c0,2.209,1.791,4,4,4h8.96c2.209,0,4-1.791,4-4    C216.258,227.765,214.467,225.974,212.258,225.974z" fill="#FFFFFF"/>
	</g>
</g>
<g>
	<g>
		<path d="M241.898,225.974h-9c-2.209,0-4,1.791-4,4c0,2.209,1.791,4,4,4h9c2.209,0,4-1.791,4-4    C245.898,227.765,244.107,225.974,241.898,225.974z" fill="#FFFFFF"/>
	</g>
</g>
<g>
	<g>
		<path d="M271.498,225.974h-9c-2.209,0-4,1.791-4,4c0,2.209,1.791,4,4,4h9c2.209,0,4-1.791,4-4    C275.498,227.765,273.707,225.974,271.498,225.974z" fill="#FFFFFF"/>
	</g>
</g>
<g>
	<g>
		<path d="M301.098,225.974h-9c-2.209,0-4,1.791-4,4c0,2.209,1.791,4,4,4h9c2.209,0,4-1.791,4-4    C305.098,227.765,303.307,225.974,301.098,225.974z" fill="#FFFFFF"/>
	</g>
</g>
<g>
	<g>
		<path d="M330.698,225.974h-9c-2.209,0-4,1.791-4,4c0,2.209,1.791,4,4,4h9c2.209,0,4-1.791,4-4    C334.698,227.765,332.908,225.974,330.698,225.974z" fill="#FFFFFF"/>
	</g>
</g>
<g>
	<g>
		<path d="M360.498,225.974h-9.16c-2.209,0-4,1.791-4,4c0,2.209,1.791,4,4,4h9.16c2.209,0,4-1.791,4-4    C364.498,227.765,362.707,225.974,360.498,225.974z" fill="#FFFFFF"/>
	</g>
</g>
<g>
	<g>
		<path d="M158.018,377.534l-53.28-21.24c-2.055-0.817-4.383,0.186-5.2,2.24c-0.817,2.055,0.186,4.383,2.24,5.2l53.28,21.24    c0.476,0.17,0.975,0.264,1.48,0.28c2.209,0.005,4.004-1.781,4.01-3.99C160.552,379.618,159.548,378.138,158.018,377.534z" fill="#FFFFFF"/>
	</g>
</g>
<g>
	<g>
		<path d="M158.578,174.294l-8.36-3.32c-2.052-0.818-4.379,0.181-5.197,2.233c-0.001,0.002-0.002,0.004-0.003,0.007    c-0.819,2.052,0.181,4.379,2.233,5.197c0.002,0.001,0.004,0.002,0.007,0.003l8.36,3.32c0.469,0.192,0.973,0.287,1.48,0.28    c2.209,0.005,4.004-1.781,4.01-3.99C161.112,176.378,160.108,174.898,158.578,174.294z" fill="#FFFFFF"/>
	</g>
</g>
<g>
	<g>
		<path d="M449.778,1.334c-4.84-2.08-15.08-3.52-29.24,10.08c-15.096,15.075-24.304,35.051-25.96,56.32c-3.28,0.44-6.32,0.8-9,1    c-11.371,0.692-22.381,4.256-32,10.36c-1.824,1.246-2.294,3.734-1.048,5.559c1.216,1.782,3.627,2.278,5.448,1.121    c8.427-5.322,18.054-8.444,28-9.08c2.4-0.2,4.88-0.44,7.44-0.76c-3.16,19.68-14.12,33.76-30.8,40.36l-23.68-36    c-0.744-1.129-2.008-1.807-3.36-1.8h-19.08l-88.92-35.52c-1.315-0.584-2.843-0.416-4,0.44l-80.48,56.4    c-0.637,0.456-1.135,1.079-1.44,1.8l-19.72,49.56c-0.411,0.986-0.411,2.095,0,3.08l5.08,11.8l-11.8,5.08    c-0.977,0.406-1.754,1.183-2.16,2.16l-83.24,209.12c-4.552,11.361,0.969,24.26,12.329,28.812c0.024,0.009,0.047,0.019,0.071,0.028    l127.44,50.8v4.92c0.022,12.252,9.948,22.178,22.2,22.2h180c12.245-0.022,22.16-9.955,22.16-22.2v-225.08    c0.006-1.063-0.411-2.085-1.16-2.84l-9.08-9.08l9.08-9.08c0.749-0.755,1.166-1.777,1.16-2.84v-53.48    c0.006-0.78-0.217-1.545-0.64-2.2l-25.84-39.32c19.2-8,31.56-25,34.52-48.52c17.4-3.2,36-9.96,47.4-24    c6.968-8.339,10.989-18.743,11.44-29.6C461.486,12.755,457.1,5.025,449.778,1.334z M170.858,239.054    c-0.763,0.748-1.196,1.771-1.2,2.84v56.48l-36-14.4c-2.052-0.818-4.379,0.181-5.197,2.233c-0.001,0.002-0.002,0.004-0.003,0.007    c-0.818,2.052,0.181,4.379,2.233,5.197c0.002,0.001,0.004,0.002,0.007,0.003l39.08,15.56v33.28l-50.52-20    c-2.052-0.818-4.379,0.181-5.197,2.233c-0.001,0.002-0.002,0.004-0.003,0.007c-0.818,2.052,0.181,4.379,2.233,5.197    c0.002,0.001,0.004,0.002,0.007,0.003l53.48,21.32v104.52l-124.6-49.72c-3.509-1.371-6.32-4.096-7.8-7.56    c-1.44-3.484-1.44-7.396,0-10.88l82.56-207.56l13.96-6c0.97-0.424,1.732-1.215,2.12-2.2c0.4-0.974,0.4-2.066,0-3.04l-6.04-14    l18.52-46.88l78.12-54.48l68.32,27.24h-67.16c-1.352-0.007-2.616,0.671-3.36,1.8l-54.08,82.24c-0.437,0.651-0.674,1.416-0.68,2.2    v53.36c0.004,1.069,0.437,2.092,1.2,2.84l9.08,9.08L170.858,239.054z M385.898,165.894v50.68l-10.72,10.76    c-1.551,1.56-1.551,4.08,0,5.64l10.72,10.76v223.24c0,7.827-6.333,14.178-14.16,14.2h-180c-7.833-0.022-14.178-6.367-14.2-14.2    v-7.72v-215.72l10.96-10.76c1.551-1.56,1.551-4.08,0-5.64l-10.84-10.56v-50.68l52.28-79.44h103.72l21.28,32.32    c-4.465,1.032-9.02,1.621-13.6,1.76c-13.132,0.222-26.089,3.05-38.12,8.32c-12.751-11.819-32.669-11.063-44.487,1.688    c-11.819,12.751-11.063,32.669,1.688,44.487c12.751,11.819,32.669,11.063,44.487-1.688c5.406-5.832,8.404-13.495,8.392-21.447    c0.001-5.876-1.663-11.632-4.8-16.6c10.509-4.243,21.708-6.521,33.04-6.72c6.108-0.151,12.177-1.024,18.08-2.6L385.898,165.894z     M280.912,149.148c0.753,0.804,1.804,1.262,2.906,1.266c1.03-0.004,2.018-0.405,2.76-1.12c4.419-4.125,9.353-7.661,14.68-10.52    c2.637,3.867,4.045,8.44,4.04,13.12c0.04,13.012-10.475,23.593-23.487,23.633c-13.012,0.04-23.593-10.475-23.633-23.487    c-0.04-13.012,10.475-23.593,23.487-23.633c4.946-0.015,9.772,1.526,13.793,4.407c-5.186,2.989-10.005,6.574-14.36,10.68    C279.486,145.004,279.402,147.535,280.912,149.148z M452.778,20.974c-0.44,9.052-3.841,17.709-9.68,24.64h0    c-9.48,12-25.92,17.76-40.28,20.68c1.742-18.593,9.969-35.982,23.24-49.12c6.24-6,12.24-9.2,17-9.2    c1.22-0.006,2.429,0.225,3.56,0.68C450.925,11.183,453.339,16.011,452.778,20.974z" fill="#FFFFFF"/>
	</g>
</g>
<g>
</g>
<g>
</g>
<g>
</g>
<g>
</g>
<g>
</g>
<g>
</g>
<g>
</g>
<g>
</g>
<g>
</g>
<g>
</g>
<g>
</g>
<g>
</g>
<g>
</g>
<g>
</g>
<g>
</g>
</svg>
