<?xml version="1.0" encoding="UTF-8"?>
<svg width="30px" height="30px" viewBox="0 0 30 30" version="1.1" xmlns="http://www.w3.org/2000/svg" xmlns:xlink="http://www.w3.org/1999/xlink">
    <!-- Generator: Sketch 50.2 (55047) - http://www.bohemiancoding.com/sketch -->
    <title>flaticon1541238087-svg</title>
    <desc>Created with Sketch.</desc>
    <defs></defs>
    <g id="Page-1" stroke="none" stroke-width="1" fill="none" fill-rule="evenodd">
        <g id="Group-2" transform="translate(-1032.000000, -465.000000)" fill="#FFFFFF" fill-rule="nonzero">
            <g id="MAIN" transform="translate(0.000000, 175.000000)">
                <g id="Group-5" transform="translate(921.000000, 111.000000)">
                    <g id="Group-4" transform="translate(58.000000, 74.000000)">
                        <g id="Group-16" transform="translate(53.000000, 102.000000)">
                            <g id="flaticon1541238087-svg" transform="translate(0.000000, 3.000000)">
                                <path d="M29.9999817,2.04345935 C30.0022668,1.4956538 29.7908607,0.981364644 29.4047281,0.595222961 C29.0185955,0.209081278 28.5033224,-0.00197825745 27.9565845,1.39758161e-05 C27.4103739,0.00229918456 26.8961554,0.216933021 26.5086752,0.604363796 C26.3446128,0.768430065 26.046195,1.12281321 25.8829529,1.31951694 C25.7115077,1.52606466 25.7398671,1.83251701 25.9464099,2.00390766 C26.1528942,2.17535692 26.4593393,2.14699689 26.6307845,1.94044918 C26.8864875,1.63247335 27.097835,1.38994825 27.1959795,1.29174287 C27.4009403,1.08683582 27.6724636,0.973278521 27.9606274,0.972048024 C27.9622095,0.972048024 27.9636743,0.972048024 27.9652563,0.972048024 C28.250139,0.972048024 28.5171505,1.0822068 28.7174239,1.28254344 C28.9188105,1.48393478 29.0291424,1.75271049 29.0279119,2.0393577 C29.0266815,2.32746979 28.9131269,2.59899946 28.7082246,2.8040237 C28.5247677,2.98748495 27.8941822,3.48771128 26.9907257,4.11883906 C26.4562924,3.20510713 25.4651212,2.58956565 24.3323289,2.58956565 L17.215302,2.58956565 C16.2545994,2.58956565 15.3514359,2.96369534 14.6720418,3.64298829 L0.446073946,17.8694674 C0.158437403,18.1571108 0,18.539561 0,18.9463281 C0,19.3530953 0.158437403,19.7356041 0.446073946,20.0231888 L9.97733765,29.5546773 C10.2742906,29.8515786 10.6641732,30 11.0541729,30 C11.4441727,30 11.8341725,29.85152 12.1310082,29.5546773 L26.3570933,15.3283153 C27.0363702,14.6489638 27.4104911,13.745779 27.4104911,12.7849952 L27.4104911,5.66785902 C27.4104911,5.4577956 27.3892215,5.25271276 27.3489091,5.05436836 C28.3772873,4.34671539 29.1322088,3.75472913 29.3955289,3.49140277 C29.7830677,3.103972 29.9976965,2.58974143 29.9999817,2.04345935 Z M26.4384799,12.7849952 C26.4384799,13.4860855 26.1654332,14.1452217 25.669789,14.6408776 L11.4437039,28.8673568 C11.2290166,29.0821078 10.8794465,29.0821078 10.6647005,28.8673568 L1.13343681,19.3358683 C1.02943296,19.231862 0.972069718,19.093519 0.972069718,18.9463281 C0.972069718,18.7991372 1.02937437,18.6608528 1.13343681,18.5568465 L15.3594633,4.33048455 C15.8552247,3.83477004 16.5142868,3.56177548 17.215302,3.56177548 L24.3322703,3.56177548 C25.1314885,3.56177548 25.8281678,4.00926623 26.1848863,4.6668204 C25.6107851,5.04698538 24.9679535,5.45123295 24.2859813,5.84874208 C24.2647117,5.82542123 24.2429735,5.80233476 24.2204149,5.77977565 C23.4244779,4.98381987 22.1294396,4.98381987 21.3335026,5.77977565 C20.5375656,6.57573144 20.5375656,7.87080025 21.3335026,8.66675603 C21.7314711,9.06473393 22.2542442,9.26366428 22.7769587,9.26366428 C23.2996733,9.26366428 23.8224464,9.06473393 24.2204149,8.66675603 C24.7516841,8.1354743 24.9277582,7.38199996 24.7498677,6.7028242 C25.3430119,6.3575233 25.9126014,6.00460504 26.4382456,5.66317141 C26.4383042,5.66481207 26.4384213,5.66633555 26.4384213,5.66791761 L26.4384213,12.7849952 L26.4384799,12.7849952 Z M22.3428965,7.44164977 C22.4282675,7.61139976 22.5995956,7.70937076 22.7774861,7.70937076 C22.850904,7.70937076 22.9254938,7.69267116 22.9955719,7.65739691 C23.2804545,7.5140733 23.5643411,7.36500738 23.8454151,7.21230856 C23.8482276,7.48975634 23.7445167,7.76808305 23.5332278,7.97937696 C23.1162749,8.39628107 22.4379941,8.39628107 22.0210412,7.97937696 C21.604147,7.56241426 21.604147,6.88411743 22.0210412,6.46715472 C22.2295177,6.25867337 22.5033261,6.15449129 22.7771345,6.15449129 C22.9939313,6.15449129 23.2100835,6.22093813 23.3944779,6.3515466 C23.1193804,6.50108128 22.8401814,6.64751043 22.5587557,6.78913478 C22.3188145,6.90966489 22.2221935,7.20187863 22.3428965,7.44164977 Z" id="Shape"></path>
                                <path d="M14.7058824,10 C14.3810233,10 14.1176471,10.216397 14.1176471,10.4834401 L14.1176471,20.6930305 C14.1176471,20.9600153 14.3810233,21.1764706 14.7058824,21.1764706 C15.0307414,21.1764706 15.2941176,20.9600153 15.2941176,20.6930305 L15.2941176,10.4834401 C15.2941176,10.216397 15.0307414,10 14.7058824,10 Z" id="Shape"></path>
                                <path d="M12.3379106,14.1318324 C11.5350339,13.3285852 10.2285489,13.3286443 9.4257313,14.1317733 C8.62279545,14.9349022 8.62279545,16.2416422 9.4257313,17.0447712 C9.82725834,17.4463948 10.3545101,17.6471179 10.8818801,17.6470588 C11.4091318,17.6470588 11.9365609,17.4462174 12.3379697,17.0447712 C12.7269657,16.6556817 12.9411765,16.1384723 12.9411765,15.5882722 C12.9411765,15.0380721 12.7269066,14.5208036 12.3379106,14.1318324 Z M11.6445627,16.3511383 C11.2239435,16.7718587 10.5396984,16.7717996 10.1191383,16.3511383 C9.69857818,15.9304179 9.69857818,15.2460083 10.1191383,14.8252879 C10.3294479,14.6149277 10.605664,14.5098067 10.8818801,14.5098067 C11.1580962,14.5098067 11.4343122,14.6149277 11.6446218,14.8252879 C11.8483704,15.0290854 11.9605591,15.2999877 11.9605591,15.5882131 C11.9605,15.8764385 11.8483113,16.1473408 11.6445627,16.3511383 Z" id="Shape"></path>
                                <path d="M19.3976362,14.1317796 C18.5944942,13.3285929 17.287674,13.3286521 16.4847094,14.1317796 C15.6815675,14.9349071 15.6815675,16.2416448 16.4847094,17.0447723 C16.8862804,17.4463361 17.4137266,17.6470588 17.9412319,17.6470588 C18.4686781,17.6470588 18.9961834,17.4463361 19.3976953,17.0447723 C20.2007781,16.2416448 20.2007781,14.9349071 19.3976362,14.1317796 Z M18.7040512,16.3511407 C18.283324,16.7718603 17.5989033,16.7718012 17.1782352,16.3511407 C16.7575672,15.930421 16.7575672,15.2460126 17.1782352,14.825293 C17.3885988,14.6149332 17.6648858,14.5098124 17.9411728,14.5098124 C18.2174598,14.5098124 18.4937467,14.6149332 18.7041103,14.825293 C19.1247784,15.2460126 19.1247784,15.930421 18.7040512,16.3511407 Z" id="Shape"></path>
                            </g>
                        </g>
                    </g>
                </g>
            </g>
        </g>
    </g>
</svg>