<?xml version="1.0" encoding="UTF-8"?>
<svg width="24px" height="22px" viewBox="0 0 24 22" version="1.1" xmlns="http://www.w3.org/2000/svg" xmlns:xlink="http://www.w3.org/1999/xlink">
    <!-- Generator: Sketch 50.2 (55047) - http://www.bohemiancoding.com/sketch -->
    <title>flaticon1541773930-svg</title>
    <desc>Created with Sketch.</desc>
    <defs></defs>
    <g id="Page-1" stroke="none" stroke-width="1" fill="none" fill-rule="evenodd">
        <g id="Group-2" transform="translate(-902.000000, -133.000000)" fill="#2E2E2E" fill-rule="nonzero">
            <g id="HEADER">
                <g id="second_navbar" transform="translate(0.000000, 109.000000)">
                    <g id="Group-22" transform="translate(902.000000, 23.000000)">
                        <g id="flaticon1541773930-svg" transform="translate(0.000000, 1.000000)">
                            <path d="M20.7338809,3.22665022 C18.6591376,1.14996861 15.899384,0.00557399103 12.9671458,0.00557399103 C9.98069815,0.00557399103 7.18644764,1.18449776 5.10184805,3.32530493 C4.875154,3.5571435 4.88008214,3.93203139 5.11170431,4.16386996 C5.34332649,4.39077578 5.71786448,4.38584305 5.94948665,4.15400448 C7.81232033,2.24503587 10.3010267,1.19436323 12.9671458,1.19436323 C18.373306,1.18943049 22.7691992,5.58943049 22.7691992,11.0006413 C22.7691992,16.411852 18.373306,20.811852 12.9671458,20.811852 C7.56098563,20.811852 3.1650924,16.411852 3.1650924,11.0006413 L3.1650924,10.8773229 L4.14086242,11.8540045 C4.25420945,11.9674574 4.40698152,12.0266502 4.55975359,12.0266502 C4.71252567,12.0266502 4.86036961,11.9674574 4.97864476,11.8540045 C5.21026694,11.6221659 5.21026694,11.247278 4.97864476,11.0154395 L2.99753593,9.02754709 C2.76591376,8.79570852 2.39137577,8.79570852 2.15975359,9.02754709 L0.173716632,11.0154395 C-0.0579055441,11.247278 -0.0579055441,11.6221659 0.173716632,11.8540045 C0.405338809,12.085843 0.779876797,12.085843 1.01149897,11.8540045 L1.98726899,10.8773229 L1.98726899,11.0006413 C1.98726899,13.9356188 3.13059548,16.6979507 5.20533881,18.7746323 C7.28008214,20.8513139 10.0398357,21.9957085 12.9720739,21.9957085 C15.9043121,21.9957085 18.6640657,20.8513139 20.738809,18.7746323 C22.8135524,16.6979507 23.9519507,13.9356188 23.9519507,11.0006413 C23.9519507,8.06566368 22.8086242,5.30333184 20.7338809,3.22665022 Z" id="Shape"></path>
                            <path d="M16.1112936,7.00019283 L8.84722793,14.2661121 C8.61560575,14.4979507 8.61560575,14.8728386 8.84722793,15.1046771 C8.96057495,15.21813 9.11334702,15.2773229 9.2661191,15.2773229 C9.41889117,15.2773229 9.56673511,15.21813 9.68501027,15.1046771 L16.949076,7.83382511 C17.1806982,7.60198655 17.1806982,7.22709865 16.949076,6.99526009 C16.7174538,6.76835426 16.3429158,6.76835426 16.1112936,7.00019283 Z" id="Shape"></path>
                            <path d="M14.2090349,11.8934664 C13.386037,12.7172332 13.386037,14.06387 14.2090349,14.8876368 C14.6082136,15.2871883 15.1404517,15.5091614 15.7071869,15.5091614 C16.273922,15.5091614 16.8061602,15.2871883 17.2053388,14.8876368 C18.0283368,14.06387 18.0283368,12.7172332 17.2053388,11.8934664 C16.8061602,11.4939148 16.273922,11.2719417 15.7071869,11.2719417 C15.1404517,11.2719417 14.6131417,11.4939148 14.2090349,11.8934664 Z M16.3675565,14.0540045 C16.1901437,14.231583 15.9585216,14.3253049 15.7071869,14.3253049 C15.4558522,14.3253049 15.22423,14.2266502 15.0468172,14.0540045 C14.6821355,13.6889821 14.6821355,13.0970538 15.0468172,12.7320314 C15.22423,12.5544529 15.4558522,12.4607309 15.7071869,12.4607309 C15.9585216,12.4607309 16.1901437,12.5593857 16.3675565,12.7320314 C16.7322382,13.0970538 16.7322382,13.6889821 16.3675565,14.0540045 Z" id="Shape"></path>
                            <path d="M10.2468172,6.47239013 C9.68008214,6.47239013 9.14784394,6.69436323 8.7486653,7.0939148 C8.34948665,7.49346637 8.12772074,8.02620179 8.12772074,8.59346637 C8.12772074,9.16073094 8.34948665,9.69346637 8.7486653,10.0930179 C9.14784394,10.4925695 9.68008214,10.7145426 10.2468172,10.7145426 C10.8135524,10.7145426 11.3457906,10.4925695 11.7449692,10.0930179 C12.1441478,9.69346637 12.3659138,9.16073094 12.3659138,8.59346637 C12.3659138,8.02620179 12.1441478,7.49346637 11.7449692,7.0939148 C11.3408624,6.69436323 10.8135524,6.47239013 10.2468172,6.47239013 Z M10.9071869,9.25445291 C10.7297741,9.43203139 10.498152,9.52575336 10.2468172,9.52575336 C9.99548255,9.52575336 9.76386037,9.42709865 9.58644764,9.25445291 C9.40903491,9.07687444 9.31540041,8.84503587 9.31540041,8.59346637 C9.31540041,8.34189686 9.41396304,8.1100583 9.58644764,7.93247982 C9.76386037,7.75490135 9.99548255,7.66117937 10.2468172,7.66117937 C10.498152,7.66117937 10.7297741,7.75983408 10.9071869,7.93247982 C11.0845996,8.1100583 11.1782341,8.34189686 11.1782341,8.59346637 C11.1782341,8.84010314 11.0845996,9.07687444 10.9071869,9.25445291 Z" id="Shape"></path>
                        </g>
                    </g>
                </g>
            </g>
        </g>
    </g>
</svg>