<?xml version="1.0" encoding="UTF-8"?>
<svg fill="#00b153" width="25px" height="25px" viewBox="0 0 25 25" version="1.1" xmlns="http://www.w3.org/2000/svg" xmlns:xlink="http://www.w3.org/1999/xlink">
    <!-- Generator: Sketch 50.2 (55047) - http://www.bohemiancoding.com/sketch -->
    <title>flaticon1541389812-svg</title>
    <desc>Created with Sketch.</desc>
    <defs></defs>
    <g id="Page-1" stroke="none" stroke-width="1" fill="none" fill-rule="evenodd">
        <g id="Group-3" transform="translate(-868.000000, -833.000000)" fill="#FCCA3A" fill-rule="nonzero">
            <g id="Group-6" transform="translate(198.000000, 723.000000)">
                <g id="Group-7" transform="translate(670.000000, 110.000000)">
                    <g id="Group-8">
                        <g id="flaticon1541389812-svg">
                            <path d="M21.3388672,3.66113281 C18.9779297,1.30019531 15.8388672,0 12.5,0 C9.16113281,0 6.02207031,1.30019531 3.66113281,3.66113281 C1.30024414,6.02207031 0,9.16113281 0,12.5 C0,15.8388672 1.30024414,18.9779297 3.66113281,21.3388672 C6.02207031,23.6998047 9.16113281,25 12.5,25 C15.8388672,25 18.9779297,23.6998047 21.3388672,21.3388672 C23.6997559,18.9779297 25,15.8388672 25,12.5 C25,9.16113281 23.6997559,6.02207031 21.3388672,3.66113281 Z M12.5349998,24.0699997 C6.17457031,24.0699997 1,18.8954294 1,12.5349998 C1,6.17457031 6.17457031,1 12.5349998,1 C18.8954294,1 24.0699997,6.17457031 24.0699997,12.5349998 C24.0699997,18.8954294 18.8954294,24.0699997 12.5349998,24.0699997 Z" id="Shape"></path>
                            <path d="M13.2845215,11.7675781 L11.7154785,11.7675781 C10.821582,11.7675781 10.0943848,11.0403809 10.0943848,10.1465332 C10.0943848,9.25263672 10.8216309,8.52543945 11.7154785,8.52543945 L14.8535156,8.52543945 C15.2580078,8.52543945 15.5859375,8.19750977 15.5859375,7.79301758 C15.5859375,7.38852539 15.2580078,7.0605957 14.8535156,7.0605957 L13.2324219,7.0605957 L13.2324219,5.43950195 C13.2324219,5.03500977 12.9044922,4.70708008 12.5,4.70708008 C12.0955078,4.70708008 11.7675781,5.03500977 11.7675781,5.43950195 L11.7675781,7.0605957 L11.7155273,7.0605957 C10.013916,7.0605957 8.62958984,8.4449707 8.62958984,10.1465332 C8.62958984,11.8480957 10.0139648,13.2324219 11.7155273,13.2324219 L13.2845703,13.2324219 C14.178418,13.2324219 14.9056152,13.959668 14.9056152,14.8535156 C14.9056152,15.7473633 14.178418,16.4746094 13.2845703,16.4746094 L10.1465332,16.4746094 C9.74204102,16.4746094 9.41411133,16.8025391 9.41411133,17.2070312 C9.41411133,17.6115234 9.74204102,17.9394531 10.1465332,17.9394531 L11.7675781,17.9394531 L11.7675781,19.5605957 C11.7675781,19.9650879 12.0955078,20.2930176 12.5,20.2930176 C12.9044922,20.2930176 13.2324219,19.9650879 13.2324219,19.5605957 L13.2324219,17.9394531 L13.2845215,17.9394531 C14.986084,17.9394531 16.3704102,16.5550781 16.3704102,14.8535156 C16.3704102,13.1519531 14.986084,11.7675781 13.2845215,11.7675781 Z" id="Shape"></path>
                        </g>
                    </g>
                </g>
            </g>
        </g>
    </g>
</svg>